<mxfile host="" modified="2020-06-17T08:31:00.285Z" agent="5.0 (X11; Linux x86_64) AppleWebKit/537.36 (KHTML, like Gecko) code-oss/1.45.1 Chrome/78.0.3904.130 Electron/7.1.14 Safari/537.36" etag="ippDzaix29Ms40In0DyO" version="13.1.3" pages="5">
    <diagram id="6hGFLwfOUW9BJ-s0fimq" name="Index">
        <mxGraphModel dx="707" dy="790" grid="1" gridSize="10" guides="1" tooltips="1" connect="1" arrows="1" fold="1" page="1" pageScale="1" pageWidth="827" pageHeight="1169" math="0" shadow="0">
            <root>
                <mxCell id="0"/>
                <mxCell id="1" parent="0"/>
                <mxCell id="5" style="edgeStyle=orthogonalEdgeStyle;rounded=0;orthogonalLoop=1;jettySize=auto;html=1;entryX=0.5;entryY=0;entryDx=0;entryDy=0;" parent="1" source="2" target="3" edge="1">
                    <mxGeometry relative="1" as="geometry"/>
                </mxCell>
                <mxCell id="6" style="edgeStyle=orthogonalEdgeStyle;rounded=0;orthogonalLoop=1;jettySize=auto;html=1;entryX=0.5;entryY=0;entryDx=0;entryDy=0;" parent="1" source="2" target="4" edge="1">
                    <mxGeometry relative="1" as="geometry"/>
                </mxCell>
                <mxCell id="2" value="Assets" style="whiteSpace=wrap;html=1;aspect=fixed;" parent="1" vertex="1">
                    <mxGeometry x="374" y="40" width="80" height="80" as="geometry"/>
                </mxCell>
                <mxCell id="bZMmsCw2MI6Tk-kRLGE1-8" style="edgeStyle=orthogonalEdgeStyle;rounded=0;orthogonalLoop=1;jettySize=auto;html=1;" parent="1" source="3" target="bZMmsCw2MI6Tk-kRLGE1-6" edge="1">
                    <mxGeometry relative="1" as="geometry"/>
                </mxCell>
                <mxCell id="3" value="Fixed" style="whiteSpace=wrap;html=1;aspect=fixed;" parent="1" vertex="1">
                    <mxGeometry x="280" y="160" width="80" height="80" as="geometry"/>
                </mxCell>
                <mxCell id="bZMmsCw2MI6Tk-kRLGE1-9" style="edgeStyle=orthogonalEdgeStyle;rounded=0;orthogonalLoop=1;jettySize=auto;html=1;entryX=0.5;entryY=0;entryDx=0;entryDy=0;" parent="1" source="4" target="bZMmsCw2MI6Tk-kRLGE1-7" edge="1">
                    <mxGeometry relative="1" as="geometry"/>
                </mxCell>
                <mxCell id="4" value="Current" style="whiteSpace=wrap;html=1;aspect=fixed;" parent="1" vertex="1">
                    <mxGeometry x="480" y="160" width="80" height="80" as="geometry"/>
                </mxCell>
                <mxCell id="bZMmsCw2MI6Tk-kRLGE1-6" value="&lt;div&gt;&lt;div&gt;&lt;b&gt;&lt;font color=&quot;#00cc00&quot;&gt;Buildings&lt;/font&gt;&lt;/b&gt;. Includes all facilities owned by the entity.&lt;/div&gt;&lt;div&gt;&lt;br&gt;&lt;/div&gt;&lt;div&gt;&lt;b&gt;&lt;font color=&quot;#00cc00&quot;&gt;Computer equipment&lt;/font&gt;&lt;/b&gt;. Includes all types of computer equipment, such as servers, desktop computers, and laptops.&lt;/div&gt;&lt;div&gt;&lt;br&gt;&lt;/div&gt;&lt;div&gt;&lt;font color=&quot;#00cc00&quot;&gt;&lt;b&gt;Computer software&lt;/b&gt;&lt;/font&gt;. Usually only includes the most expensive types of software; all others are charged to expense as incurred.&lt;/div&gt;&lt;div&gt;&lt;br&gt;&lt;/div&gt;&lt;div&gt;&lt;b&gt;&lt;font color=&quot;#00cc00&quot;&gt;Construction in progress&lt;/font&gt;&lt;/b&gt;. This is an accumulation account in which are recorded the costs of construction. Once an asset (usually a building) is completed, the balance is moved to the relevant fixed asset account.&lt;/div&gt;&lt;div&gt;&lt;br&gt;&lt;/div&gt;&lt;div&gt;&lt;b&gt;&lt;font color=&quot;#00cc00&quot;&gt;Furniture and fixtures&lt;/font&gt;&lt;/b&gt;. Includes tables, chairs, filing cabinets, cubicle walls, and so forth.&lt;/div&gt;&lt;div&gt;&lt;br&gt;&lt;/div&gt;&lt;div&gt;&lt;b&gt;&lt;font color=&quot;#00ff00&quot;&gt;Intangible assets&lt;/font&gt;&lt;/b&gt;. Includes all nontangible assets, such as the costs of patents, radio licenses, and copyrights.&lt;/div&gt;&lt;div&gt;&lt;br&gt;&lt;/div&gt;&lt;div&gt;&lt;b&gt;&lt;font color=&quot;#00cc00&quot;&gt;Land&lt;/font&gt;&lt;/b&gt;. Includes the purchased cost of land, and may also include the cost of land improvements (which are otherwise recorded in a separate account).&lt;/div&gt;&lt;div&gt;&lt;br&gt;&lt;/div&gt;&lt;div&gt;&lt;font color=&quot;#00cc00&quot;&gt;&lt;b&gt;Leasehold improvements&lt;/b&gt;&lt;/font&gt;. Includes the costs incurred to renovate leased space.&lt;/div&gt;&lt;div&gt;&lt;br&gt;&lt;/div&gt;&lt;div&gt;&lt;font color=&quot;#00cc00&quot;&gt;&lt;b&gt;Machinery&lt;/b&gt;&lt;/font&gt;. Typically refers to production machinery.&lt;/div&gt;&lt;div&gt;&lt;br&gt;&lt;/div&gt;&lt;div&gt;&lt;b&gt;&lt;font color=&quot;#00cc00&quot;&gt;Office equipment&lt;/font&gt;&lt;/b&gt;. Includes copiers and similar administrative equipment, but not computers (for which there is a separate account).&lt;/div&gt;&lt;div&gt;&lt;br&gt;&lt;/div&gt;&lt;div&gt;&lt;b&gt;&lt;font color=&quot;#00cc00&quot;&gt;Vehicles&lt;/font&gt;&lt;/b&gt;. Can include company cars, trucks, and more specialized moving equipment, such as fork lifts.&lt;/div&gt;&lt;/div&gt;" style="rounded=0;whiteSpace=wrap;html=1;align=left;" parent="1" vertex="1">
                    <mxGeometry x="160" y="270" width="240" height="710" as="geometry"/>
                </mxCell>
                <mxCell id="bZMmsCw2MI6Tk-kRLGE1-7" value="&lt;font color=&quot;#ffff00&quot;&gt;&lt;b&gt;Cash&lt;br&gt;&lt;br&gt;&lt;br&gt;Cash equivalents&lt;/b&gt;&lt;/font&gt;&lt;br&gt;&lt;font color=&quot;#00cc00&quot;&gt;&lt;b&gt;Bank Balances&lt;br&gt;&lt;br&gt;Bank Overdraft&lt;br&gt;&lt;br&gt;Cheques&lt;br&gt;&lt;br&gt;Drafts-onHand&lt;br&gt;&lt;br&gt;Demand deposits&lt;/b&gt;&lt;/font&gt; with a&amp;nbsp; &lt;br&gt;maturity period of 3 months&lt;br&gt;&lt;br&gt;&lt;b&gt;&lt;font color=&quot;#00cc00&quot;&gt;short term investments&lt;/font&gt;&lt;/b&gt;&lt;br&gt;&lt;br&gt;&lt;br&gt;&lt;font color=&quot;#ffff00&quot;&gt;&lt;b&gt;Stock or inventory&lt;/b&gt;&lt;/font&gt;&lt;br&gt;&lt;b&gt;&lt;font color=&quot;#00cc00&quot;&gt;Finished goods&lt;/font&gt;&lt;/b&gt;.&amp;nbsp;Stocked for the purpose of sale in the normal course of business&lt;br&gt;&lt;br&gt;&lt;b&gt;&lt;font color=&quot;#00cc00&quot;&gt;Work in progress&lt;/font&gt;&lt;/b&gt;.&amp;nbsp;In the production process and would eventually be sold&lt;br&gt;&lt;br&gt;&lt;font color=&quot;#00cc00&quot;&gt;&lt;b&gt;Raw Material&lt;/b&gt;&lt;/font&gt;.&amp;nbsp;Shortly be consumed in the manufacturing of goods that would be sold eventually&lt;br&gt;&lt;br&gt;&lt;br&gt;&lt;font color=&quot;#ffff00&quot;&gt;&lt;b&gt;Accounts Receivable&lt;br&gt;&lt;br&gt;Marketable Securities&lt;br&gt;&lt;br&gt;Prepaid Expenses&lt;br&gt;&lt;br&gt;Other Liquid Assets&lt;/b&gt;&lt;/font&gt;&lt;br&gt;&lt;ul&gt;&lt;/ul&gt;" style="rounded=0;whiteSpace=wrap;html=1;align=left;" parent="1" vertex="1">
                    <mxGeometry x="420" y="270" width="150" height="650" as="geometry"/>
                </mxCell>
                <mxCell id="bZMmsCw2MI6Tk-kRLGE1-11" style="edgeStyle=orthogonalEdgeStyle;rounded=0;orthogonalLoop=1;jettySize=auto;html=1;" parent="1" source="bZMmsCw2MI6Tk-kRLGE1-10" edge="1">
                    <mxGeometry relative="1" as="geometry">
                        <mxPoint x="572" y="580" as="targetPoint"/>
                    </mxGeometry>
                </mxCell>
                <mxCell id="bZMmsCw2MI6Tk-kRLGE1-10" value="&lt;div&gt;Now, &lt;font color=&quot;#ff0000&quot;&gt;cost of inventory&lt;/font&gt; includes all the costs that are necessary to bring the goods into such a place and condition that they are further sold. This means cost of inventory includes purchase cost, conversion costs, freight-in and similar items that relate to the above rule. However, following costs are excluded from the cost of inventory:&lt;/div&gt;&lt;div&gt;&lt;br&gt;&lt;/div&gt;&lt;div&gt;abnormal waste of raw material, labor and overhead,&lt;/div&gt;&lt;div&gt;storage costs,&lt;/div&gt;&lt;div&gt;administrative overheads and&lt;/div&gt;&lt;div&gt;selling costs&lt;/div&gt;" style="whiteSpace=wrap;html=1;aspect=fixed;" parent="1" vertex="1">
                    <mxGeometry x="660" y="520" width="240" height="240" as="geometry"/>
                </mxCell>
                <mxCell id="bZMmsCw2MI6Tk-kRLGE1-14" style="edgeStyle=orthogonalEdgeStyle;rounded=0;orthogonalLoop=1;jettySize=auto;html=1;entryX=0.993;entryY=0.041;entryDx=0;entryDy=0;entryPerimeter=0;" parent="1" source="bZMmsCw2MI6Tk-kRLGE1-13" target="bZMmsCw2MI6Tk-kRLGE1-7" edge="1">
                    <mxGeometry relative="1" as="geometry"/>
                </mxCell>
                <mxCell id="bZMmsCw2MI6Tk-kRLGE1-13" value="&lt;div&gt;Cash is the most liquid asset of an entity and thus is important for the short-term solvency of the company. The cash balance shown under current assets is the balance available with the business. This cash can be promptly used to meet its day-to-day expenses. It typically includes coins, currencies, funds on deposit with bank, cheques and money orders.&lt;/div&gt;&lt;div&gt;&lt;br&gt;&lt;/div&gt;&lt;div&gt;Thus, cash appears as first item under the account head “current assets” in the balance sheet as it is the most liquid asset of the entity. This is because all the items in the current assets account category are listed in the order of liquidity of the assets.&lt;/div&gt;" style="rounded=0;whiteSpace=wrap;html=1;" parent="1" vertex="1">
                    <mxGeometry x="630" y="240" width="840" height="110" as="geometry"/>
                </mxCell>
                <mxCell id="bZMmsCw2MI6Tk-kRLGE1-16" style="edgeStyle=orthogonalEdgeStyle;rounded=0;orthogonalLoop=1;jettySize=auto;html=1;entryX=1.027;entryY=0.139;entryDx=0;entryDy=0;entryPerimeter=0;" parent="1" source="bZMmsCw2MI6Tk-kRLGE1-15" target="bZMmsCw2MI6Tk-kRLGE1-7" edge="1">
                    <mxGeometry relative="1" as="geometry"/>
                </mxCell>
                <mxCell id="bZMmsCw2MI6Tk-kRLGE1-15" value="Cash equivalents are the result of cash invested by the companies in very short-term, interest-earning financial instruments. These instruments are highly liquid, secure and can be easily converted into cash usually within 90 days. Furthermore, these securities include treasury bills, commercial paper and money market funds. Also, these securities readily trade in the market and the value of such securities can also be readily determined." style="rounded=1;whiteSpace=wrap;html=1;" parent="1" vertex="1">
                    <mxGeometry x="640" y="390" width="640" height="80" as="geometry"/>
                </mxCell>
                <mxCell id="bZMmsCw2MI6Tk-kRLGE1-18" style="edgeStyle=orthogonalEdgeStyle;rounded=0;orthogonalLoop=1;jettySize=auto;html=1;entryX=1.013;entryY=0.788;entryDx=0;entryDy=0;entryPerimeter=0;" parent="1" source="bZMmsCw2MI6Tk-kRLGE1-17" target="bZMmsCw2MI6Tk-kRLGE1-7" edge="1">
                    <mxGeometry relative="1" as="geometry"/>
                </mxCell>
                <mxCell id="bZMmsCw2MI6Tk-kRLGE1-17" value="Accounts receivables are the amounts that a company’s customers owe to it for the goods and services supplied by the company on credit. The accounts receivables are presented in the balance sheet at net realizable value. These amounts are determined after considering the bad debt expense." style="rounded=1;whiteSpace=wrap;html=1;" parent="1" vertex="1">
                    <mxGeometry x="660" y="790" width="440" height="90" as="geometry"/>
                </mxCell>
                <mxCell id="bZMmsCw2MI6Tk-kRLGE1-23" style="edgeStyle=orthogonalEdgeStyle;rounded=0;orthogonalLoop=1;jettySize=auto;html=1;entryX=1.007;entryY=0.825;entryDx=0;entryDy=0;entryPerimeter=0;" parent="1" source="bZMmsCw2MI6Tk-kRLGE1-20" target="bZMmsCw2MI6Tk-kRLGE1-7" edge="1">
                    <mxGeometry relative="1" as="geometry"/>
                </mxCell>
                <mxCell id="bZMmsCw2MI6Tk-kRLGE1-20" value="Marketable securities are the investments made by the company. These investments are both easily marketable as well as expected to be converted into cash within a year. These include treasury bills, notes, bonds and equity securities." style="rounded=1;whiteSpace=wrap;html=1;" parent="1" vertex="1">
                    <mxGeometry x="650" y="910" width="470" height="60" as="geometry"/>
                </mxCell>
                <mxCell id="bZMmsCw2MI6Tk-kRLGE1-24" style="edgeStyle=orthogonalEdgeStyle;rounded=0;orthogonalLoop=1;jettySize=auto;html=1;entryX=1;entryY=0.865;entryDx=0;entryDy=0;entryPerimeter=0;" parent="1" source="bZMmsCw2MI6Tk-kRLGE1-21" target="bZMmsCw2MI6Tk-kRLGE1-7" edge="1">
                    <mxGeometry relative="1" as="geometry"/>
                </mxCell>
                <mxCell id="bZMmsCw2MI6Tk-kRLGE1-21" value="Prepaid expenses refer to the operating costs of a business that have been paid in advance. Thus, cash reduces in the balance sheet at the time when such expenses are paid at the beginning of the accounting period. Simultaneously, a current asset of the same amount is created in the balance sheet by the name of prepaid expenses." style="rounded=1;whiteSpace=wrap;html=1;" parent="1" vertex="1">
                    <mxGeometry x="660" y="990" width="480" height="90" as="geometry"/>
                </mxCell>
                <mxCell id="bZMmsCw2MI6Tk-kRLGE1-25" style="edgeStyle=orthogonalEdgeStyle;rounded=0;orthogonalLoop=1;jettySize=auto;html=1;entryX=0.5;entryY=1;entryDx=0;entryDy=0;" parent="1" source="bZMmsCw2MI6Tk-kRLGE1-22" target="bZMmsCw2MI6Tk-kRLGE1-7" edge="1">
                    <mxGeometry relative="1" as="geometry"/>
                </mxCell>
                <mxCell id="bZMmsCw2MI6Tk-kRLGE1-22" value="Other current assets include deferred assets. These assets are created when the tax payable exceeds the amount of income tax expense recognized by the business in its income statement." style="rounded=1;whiteSpace=wrap;html=1;" parent="1" vertex="1">
                    <mxGeometry x="390" y="1000" width="210" height="110" as="geometry"/>
                </mxCell>
            </root>
        </mxGraphModel>
    </diagram>
    <diagram id="k4gzNj06NKUBnNSES0GV" name="Database Structure">
        <mxGraphModel dx="707" dy="790" grid="1" gridSize="10" guides="1" tooltips="1" connect="1" arrows="1" fold="1" page="1" pageScale="1" pageWidth="3300" pageHeight="4681" math="0" shadow="0">
            <root>
                <mxCell id="ZLIagWWz0gJrRWG0zaH9-0"/>
                <mxCell id="ZLIagWWz0gJrRWG0zaH9-1" parent="ZLIagWWz0gJrRWG0zaH9-0"/>
                <mxCell id="0SvQrCjive3bnL10Y1ml-0" style="edgeStyle=orthogonalEdgeStyle;rounded=0;orthogonalLoop=1;jettySize=auto;html=1;entryX=0.5;entryY=0;entryDx=0;entryDy=0;" parent="ZLIagWWz0gJrRWG0zaH9-1" source="0SvQrCjive3bnL10Y1ml-1" target="0SvQrCjive3bnL10Y1ml-2" edge="1">
                    <mxGeometry relative="1" as="geometry"/>
                </mxCell>
                <mxCell id="0SvQrCjive3bnL10Y1ml-1" value="Apps" style="whiteSpace=wrap;html=1;aspect=fixed;strokeColor=#5B60F0;" parent="ZLIagWWz0gJrRWG0zaH9-1" vertex="1">
                    <mxGeometry x="300" y="80" width="80" height="80" as="geometry"/>
                </mxCell>
                <mxCell id="0SvQrCjive3bnL10Y1ml-9" value="" style="edgeStyle=orthogonalEdgeStyle;rounded=0;orthogonalLoop=1;jettySize=auto;html=1;" parent="ZLIagWWz0gJrRWG0zaH9-1" source="0SvQrCjive3bnL10Y1ml-2" target="0SvQrCjive3bnL10Y1ml-4" edge="1">
                    <mxGeometry relative="1" as="geometry"/>
                </mxCell>
                <mxCell id="0SvQrCjive3bnL10Y1ml-2" value="CRM" style="ellipse;whiteSpace=wrap;html=1;aspect=fixed;strokeColor=#F05C26;" parent="ZLIagWWz0gJrRWG0zaH9-1" vertex="1">
                    <mxGeometry x="300" y="190" width="80" height="80" as="geometry"/>
                </mxCell>
                <mxCell id="0SvQrCjive3bnL10Y1ml-3" style="edgeStyle=orthogonalEdgeStyle;rounded=0;orthogonalLoop=1;jettySize=auto;html=1;entryX=0.5;entryY=0;entryDx=0;entryDy=0;" parent="ZLIagWWz0gJrRWG0zaH9-1" source="0SvQrCjive3bnL10Y1ml-4" target="0SvQrCjive3bnL10Y1ml-5" edge="1">
                    <mxGeometry relative="1" as="geometry"/>
                </mxCell>
                <mxCell id="0SvQrCjive3bnL10Y1ml-4" value="** Business ID **" style="whiteSpace=wrap;html=1;aspect=fixed;strokeColor=#F05C26;" parent="ZLIagWWz0gJrRWG0zaH9-1" vertex="1">
                    <mxGeometry x="285" y="310" width="110" height="110" as="geometry"/>
                </mxCell>
                <mxCell id="0SvQrCjive3bnL10Y1ml-11" value="" style="edgeStyle=orthogonalEdgeStyle;rounded=0;orthogonalLoop=1;jettySize=auto;html=1;" parent="ZLIagWWz0gJrRWG0zaH9-1" source="0SvQrCjive3bnL10Y1ml-6" edge="1">
                    <mxGeometry relative="1" as="geometry">
                        <mxPoint x="340" y="590" as="targetPoint"/>
                    </mxGeometry>
                </mxCell>
                <mxCell id="0SvQrCjive3bnL10Y1ml-5" value="Assets" style="whiteSpace=wrap;html=1;aspect=fixed;strokeColor=#F05C26;" parent="ZLIagWWz0gJrRWG0zaH9-1" vertex="1">
                    <mxGeometry x="320" y="470" width="40" height="40" as="geometry"/>
                </mxCell>
                <mxCell id="0SvQrCjive3bnL10Y1ml-13" value="" style="edgeStyle=orthogonalEdgeStyle;rounded=0;orthogonalLoop=1;jettySize=auto;html=1;" parent="ZLIagWWz0gJrRWG0zaH9-1" source="0SvQrCjive3bnL10Y1ml-7" target="0SvQrCjive3bnL10Y1ml-8" edge="1">
                    <mxGeometry relative="1" as="geometry"/>
                </mxCell>
                <mxCell id="0SvQrCjive3bnL10Y1ml-7" value="** Assets ID **" style="whiteSpace=wrap;html=1;aspect=fixed;strokeColor=#005700;fillColor=#008a00;fontColor=#ffffff;" parent="ZLIagWWz0gJrRWG0zaH9-1" vertex="1">
                    <mxGeometry x="320" y="590" width="40" height="40" as="geometry"/>
                </mxCell>
                <mxCell id="b6DJt6rnyvktnEXb7S_j-8" style="edgeStyle=orthogonalEdgeStyle;rounded=0;orthogonalLoop=1;jettySize=auto;html=1;entryX=0;entryY=0.388;entryDx=0;entryDy=0;entryPerimeter=0;" parent="ZLIagWWz0gJrRWG0zaH9-1" source="0SvQrCjive3bnL10Y1ml-8" target="b6DJt6rnyvktnEXb7S_j-1" edge="1">
                    <mxGeometry relative="1" as="geometry"/>
                </mxCell>
                <mxCell id="0SvQrCjive3bnL10Y1ml-8" value="&lt;ul&gt;&lt;li&gt;asset_name&lt;/li&gt;&lt;li&gt;asset_type&lt;/li&gt;&lt;li&gt;branch&lt;/li&gt;&lt;li&gt;created_month&lt;/li&gt;&lt;li&gt;current_asset&lt;/li&gt;&lt;li&gt;description&lt;/li&gt;&lt;li&gt;documentation&lt;/li&gt;&lt;li&gt;inventory&lt;/li&gt;&lt;li&gt;last_active&lt;/li&gt;&lt;li&gt;price&lt;/li&gt;&lt;li&gt;quantity&lt;/li&gt;&lt;li&gt;reference&lt;/li&gt;&lt;li&gt;timestamp&lt;/li&gt;&lt;li&gt;uid&lt;/li&gt;&lt;/ul&gt;" style="rounded=1;whiteSpace=wrap;html=1;strokeColor=#F05C26;align=left;" parent="ZLIagWWz0gJrRWG0zaH9-1" vertex="1">
                    <mxGeometry x="275" y="660" width="130" height="240" as="geometry"/>
                </mxCell>
                <mxCell id="0SvQrCjive3bnL10Y1ml-6" value="Assets" style="whiteSpace=wrap;html=1;aspect=fixed;strokeColor=#F05C26;" parent="ZLIagWWz0gJrRWG0zaH9-1" vertex="1">
                    <mxGeometry x="320" y="530" width="40" height="40" as="geometry"/>
                </mxCell>
                <mxCell id="0SvQrCjive3bnL10Y1ml-12" value="" style="edgeStyle=orthogonalEdgeStyle;rounded=0;orthogonalLoop=1;jettySize=auto;html=1;" parent="ZLIagWWz0gJrRWG0zaH9-1" source="0SvQrCjive3bnL10Y1ml-5" target="0SvQrCjive3bnL10Y1ml-6" edge="1">
                    <mxGeometry relative="1" as="geometry">
                        <mxPoint x="340" y="510" as="sourcePoint"/>
                        <mxPoint x="340" y="590" as="targetPoint"/>
                    </mxGeometry>
                </mxCell>
                <mxCell id="b6DJt6rnyvktnEXb7S_j-0" style="edgeStyle=orthogonalEdgeStyle;rounded=0;orthogonalLoop=1;jettySize=auto;html=1;entryX=0.5;entryY=0;entryDx=0;entryDy=0;" parent="ZLIagWWz0gJrRWG0zaH9-1" source="b6DJt6rnyvktnEXb7S_j-1" target="b6DJt6rnyvktnEXb7S_j-3" edge="1">
                    <mxGeometry relative="1" as="geometry"/>
                </mxCell>
                <mxCell id="b6DJt6rnyvktnEXb7S_j-17" style="edgeStyle=orthogonalEdgeStyle;rounded=0;orthogonalLoop=1;jettySize=auto;html=1;entryX=0;entryY=0.5;entryDx=0;entryDy=0;" parent="ZLIagWWz0gJrRWG0zaH9-1" source="b6DJt6rnyvktnEXb7S_j-1" target="b6DJt6rnyvktnEXb7S_j-10" edge="1">
                    <mxGeometry relative="1" as="geometry"/>
                </mxCell>
                <mxCell id="b6DJt6rnyvktnEXb7S_j-1" value="Apps" style="whiteSpace=wrap;html=1;aspect=fixed;strokeColor=#5B60F0;" parent="ZLIagWWz0gJrRWG0zaH9-1" vertex="1">
                    <mxGeometry x="605" y="80" width="80" height="80" as="geometry"/>
                </mxCell>
                <mxCell id="b6DJt6rnyvktnEXb7S_j-2" value="" style="edgeStyle=orthogonalEdgeStyle;rounded=0;orthogonalLoop=1;jettySize=auto;html=1;" parent="ZLIagWWz0gJrRWG0zaH9-1" source="b6DJt6rnyvktnEXb7S_j-3" target="b6DJt6rnyvktnEXb7S_j-5" edge="1">
                    <mxGeometry relative="1" as="geometry"/>
                </mxCell>
                <mxCell id="b6DJt6rnyvktnEXb7S_j-3" value="CRM" style="ellipse;whiteSpace=wrap;html=1;aspect=fixed;strokeColor=#F05C26;" parent="ZLIagWWz0gJrRWG0zaH9-1" vertex="1">
                    <mxGeometry x="605" y="190" width="80" height="80" as="geometry"/>
                </mxCell>
                <mxCell id="b6DJt6rnyvktnEXb7S_j-4" style="edgeStyle=orthogonalEdgeStyle;rounded=0;orthogonalLoop=1;jettySize=auto;html=1;entryX=0.5;entryY=0;entryDx=0;entryDy=0;" parent="ZLIagWWz0gJrRWG0zaH9-1" source="b6DJt6rnyvktnEXb7S_j-5" target="b6DJt6rnyvktnEXb7S_j-6" edge="1">
                    <mxGeometry relative="1" as="geometry"/>
                </mxCell>
                <mxCell id="b6DJt6rnyvktnEXb7S_j-5" value="** Business ID **" style="whiteSpace=wrap;html=1;aspect=fixed;strokeColor=#F05C26;" parent="ZLIagWWz0gJrRWG0zaH9-1" vertex="1">
                    <mxGeometry x="590" y="310" width="110" height="110" as="geometry"/>
                </mxCell>
                <mxCell id="b6DJt6rnyvktnEXb7S_j-19" value="" style="edgeStyle=orthogonalEdgeStyle;rounded=0;orthogonalLoop=1;jettySize=auto;html=1;" parent="ZLIagWWz0gJrRWG0zaH9-1" source="b6DJt6rnyvktnEXb7S_j-6" target="b6DJt6rnyvktnEXb7S_j-18" edge="1">
                    <mxGeometry relative="1" as="geometry"/>
                </mxCell>
                <mxCell id="b6DJt6rnyvktnEXb7S_j-6" value="stats" style="whiteSpace=wrap;html=1;aspect=fixed;strokeColor=#F05C26;" parent="ZLIagWWz0gJrRWG0zaH9-1" vertex="1">
                    <mxGeometry x="625" y="470" width="40" height="40" as="geometry"/>
                </mxCell>
                <mxCell id="b6DJt6rnyvktnEXb7S_j-21" value="" style="edgeStyle=orthogonalEdgeStyle;rounded=0;orthogonalLoop=1;jettySize=auto;html=1;" parent="ZLIagWWz0gJrRWG0zaH9-1" source="b6DJt6rnyvktnEXb7S_j-18" target="b6DJt6rnyvktnEXb7S_j-20" edge="1">
                    <mxGeometry relative="1" as="geometry"/>
                </mxCell>
                <mxCell id="b6DJt6rnyvktnEXb7S_j-23" value="" style="edgeStyle=orthogonalEdgeStyle;rounded=0;orthogonalLoop=1;jettySize=auto;html=1;" parent="ZLIagWWz0gJrRWG0zaH9-1" source="b6DJt6rnyvktnEXb7S_j-18" target="b6DJt6rnyvktnEXb7S_j-22" edge="1">
                    <mxGeometry relative="1" as="geometry"/>
                </mxCell>
                <mxCell id="b6DJt6rnyvktnEXb7S_j-18" value="total" style="whiteSpace=wrap;html=1;aspect=fixed;strokeColor=#F05C26;" parent="ZLIagWWz0gJrRWG0zaH9-1" vertex="1">
                    <mxGeometry x="625" y="530" width="40" height="40" as="geometry"/>
                </mxCell>
                <mxCell id="b6DJt6rnyvktnEXb7S_j-26" style="edgeStyle=orthogonalEdgeStyle;rounded=0;orthogonalLoop=1;jettySize=auto;html=1;" parent="ZLIagWWz0gJrRWG0zaH9-1" source="b6DJt6rnyvktnEXb7S_j-22" edge="1">
                    <mxGeometry relative="1" as="geometry">
                        <mxPoint x="660" y="720" as="targetPoint"/>
                        <Array as="points">
                            <mxPoint x="688" y="688"/>
                            <mxPoint x="660" y="688"/>
                        </Array>
                    </mxGeometry>
                </mxCell>
                <mxCell id="b6DJt6rnyvktnEXb7S_j-22" value="total" style="whiteSpace=wrap;html=1;aspect=fixed;strokeColor=#F05C26;" parent="ZLIagWWz0gJrRWG0zaH9-1" vertex="1">
                    <mxGeometry x="665" y="610" width="45" height="45" as="geometry"/>
                </mxCell>
                <mxCell id="b6DJt6rnyvktnEXb7S_j-25" style="edgeStyle=orthogonalEdgeStyle;rounded=0;orthogonalLoop=1;jettySize=auto;html=1;entryX=0.5;entryY=0;entryDx=0;entryDy=0;" parent="ZLIagWWz0gJrRWG0zaH9-1" source="b6DJt6rnyvktnEXb7S_j-20" target="b6DJt6rnyvktnEXb7S_j-24" edge="1">
                    <mxGeometry relative="1" as="geometry"/>
                </mxCell>
                <mxCell id="b6DJt6rnyvktnEXb7S_j-20" value="created date" style="whiteSpace=wrap;html=1;aspect=fixed;strokeColor=#F05C26;" parent="ZLIagWWz0gJrRWG0zaH9-1" vertex="1">
                    <mxGeometry x="585" y="610" width="45" height="45" as="geometry"/>
                </mxCell>
                <mxCell id="b6DJt6rnyvktnEXb7S_j-9" style="edgeStyle=orthogonalEdgeStyle;rounded=0;orthogonalLoop=1;jettySize=auto;html=1;entryX=0.5;entryY=0;entryDx=0;entryDy=0;" parent="ZLIagWWz0gJrRWG0zaH9-1" source="b6DJt6rnyvktnEXb7S_j-10" target="b6DJt6rnyvktnEXb7S_j-12" edge="1">
                    <mxGeometry relative="1" as="geometry"/>
                </mxCell>
                <mxCell id="b6DJt6rnyvktnEXb7S_j-10" value="Apps" style="whiteSpace=wrap;html=1;aspect=fixed;strokeColor=#5B60F0;" parent="ZLIagWWz0gJrRWG0zaH9-1" vertex="1">
                    <mxGeometry x="875" y="80" width="80" height="80" as="geometry"/>
                </mxCell>
                <mxCell id="b6DJt6rnyvktnEXb7S_j-11" value="" style="edgeStyle=orthogonalEdgeStyle;rounded=0;orthogonalLoop=1;jettySize=auto;html=1;" parent="ZLIagWWz0gJrRWG0zaH9-1" source="b6DJt6rnyvktnEXb7S_j-12" target="b6DJt6rnyvktnEXb7S_j-14" edge="1">
                    <mxGeometry relative="1" as="geometry"/>
                </mxCell>
                <mxCell id="b6DJt6rnyvktnEXb7S_j-12" value="CRM" style="ellipse;whiteSpace=wrap;html=1;aspect=fixed;strokeColor=#F05C26;" parent="ZLIagWWz0gJrRWG0zaH9-1" vertex="1">
                    <mxGeometry x="875" y="190" width="80" height="80" as="geometry"/>
                </mxCell>
                <mxCell id="b6DJt6rnyvktnEXb7S_j-13" style="edgeStyle=orthogonalEdgeStyle;rounded=0;orthogonalLoop=1;jettySize=auto;html=1;entryX=0.5;entryY=0;entryDx=0;entryDy=0;" parent="ZLIagWWz0gJrRWG0zaH9-1" source="b6DJt6rnyvktnEXb7S_j-14" target="b6DJt6rnyvktnEXb7S_j-15" edge="1">
                    <mxGeometry relative="1" as="geometry"/>
                </mxCell>
                <mxCell id="b6DJt6rnyvktnEXb7S_j-14" value="** Business ID **" style="whiteSpace=wrap;html=1;aspect=fixed;strokeColor=#F05C26;" parent="ZLIagWWz0gJrRWG0zaH9-1" vertex="1">
                    <mxGeometry x="860" y="310" width="110" height="110" as="geometry"/>
                </mxCell>
                <mxCell id="b6DJt6rnyvktnEXb7S_j-28" value="" style="edgeStyle=orthogonalEdgeStyle;rounded=0;orthogonalLoop=1;jettySize=auto;html=1;" parent="ZLIagWWz0gJrRWG0zaH9-1" source="b6DJt6rnyvktnEXb7S_j-15" target="b6DJt6rnyvktnEXb7S_j-27" edge="1">
                    <mxGeometry relative="1" as="geometry"/>
                </mxCell>
                <mxCell id="b6DJt6rnyvktnEXb7S_j-15" value="Activity Timeline" style="whiteSpace=wrap;html=1;aspect=fixed;strokeColor=#F05C26;" parent="ZLIagWWz0gJrRWG0zaH9-1" vertex="1">
                    <mxGeometry x="892.5" y="465" width="45" height="45" as="geometry"/>
                </mxCell>
                <mxCell id="b6DJt6rnyvktnEXb7S_j-30" value="" style="edgeStyle=orthogonalEdgeStyle;rounded=0;orthogonalLoop=1;jettySize=auto;html=1;" parent="ZLIagWWz0gJrRWG0zaH9-1" source="b6DJt6rnyvktnEXb7S_j-27" target="b6DJt6rnyvktnEXb7S_j-29" edge="1">
                    <mxGeometry relative="1" as="geometry"/>
                </mxCell>
                <mxCell id="b6DJt6rnyvktnEXb7S_j-32" style="edgeStyle=orthogonalEdgeStyle;rounded=0;orthogonalLoop=1;jettySize=auto;html=1;entryX=0.5;entryY=0;entryDx=0;entryDy=0;" parent="ZLIagWWz0gJrRWG0zaH9-1" source="b6DJt6rnyvktnEXb7S_j-27" target="b6DJt6rnyvktnEXb7S_j-31" edge="1">
                    <mxGeometry relative="1" as="geometry"/>
                </mxCell>
                <mxCell id="b6DJt6rnyvktnEXb7S_j-27" value="Activity Timeline" style="whiteSpace=wrap;html=1;aspect=fixed;strokeColor=#F05C26;" parent="ZLIagWWz0gJrRWG0zaH9-1" vertex="1">
                    <mxGeometry x="892.5" y="530" width="45" height="45" as="geometry"/>
                </mxCell>
                <mxCell id="b6DJt6rnyvktnEXb7S_j-34" style="edgeStyle=orthogonalEdgeStyle;rounded=0;orthogonalLoop=1;jettySize=auto;html=1;entryX=0.5;entryY=0;entryDx=0;entryDy=0;" parent="ZLIagWWz0gJrRWG0zaH9-1" source="b6DJt6rnyvktnEXb7S_j-29" target="b6DJt6rnyvktnEXb7S_j-33" edge="1">
                    <mxGeometry relative="1" as="geometry"/>
                </mxCell>
                <mxCell id="b6DJt6rnyvktnEXb7S_j-29" value="user ID" style="whiteSpace=wrap;html=1;aspect=fixed;strokeColor=#F05C26;" parent="ZLIagWWz0gJrRWG0zaH9-1" vertex="1">
                    <mxGeometry x="847.5" y="615" width="45" height="45" as="geometry"/>
                </mxCell>
                <mxCell id="b6DJt6rnyvktnEXb7S_j-24" value="&lt;ul&gt;&lt;li&gt;assets_value&lt;/li&gt;&lt;li&gt;assets_data&lt;/li&gt;&lt;li&gt;assets_last_active&lt;/li&gt;&lt;li&gt;current_assets_value&lt;/li&gt;&lt;li&gt;current_assets_data&lt;/li&gt;&lt;li&gt;current_assets_last_active&lt;/li&gt;&lt;li&gt;fixed_assets_value&lt;/li&gt;&lt;li&gt;fixed_assets_data&lt;/li&gt;&lt;li&gt;fixed_assets_last_active&lt;/li&gt;&lt;li&gt;{asset_type_value}&lt;/li&gt;&lt;li&gt;{asset_type_data}&lt;/li&gt;&lt;li&gt;{asset_type_last_active}&lt;/li&gt;&lt;/ul&gt;" style="rounded=1;whiteSpace=wrap;html=1;strokeColor=#F05C26;align=left;" parent="ZLIagWWz0gJrRWG0zaH9-1" vertex="1">
                    <mxGeometry x="570" y="720" width="200" height="250" as="geometry"/>
                </mxCell>
                <mxCell id="b6DJt6rnyvktnEXb7S_j-35" style="edgeStyle=orthogonalEdgeStyle;rounded=0;orthogonalLoop=1;jettySize=auto;html=1;entryX=0.5;entryY=0;entryDx=0;entryDy=0;" parent="ZLIagWWz0gJrRWG0zaH9-1" source="b6DJt6rnyvktnEXb7S_j-31" target="b6DJt6rnyvktnEXb7S_j-33" edge="1">
                    <mxGeometry relative="1" as="geometry"/>
                </mxCell>
                <mxCell id="b6DJt6rnyvktnEXb7S_j-31" value="company" style="whiteSpace=wrap;html=1;aspect=fixed;strokeColor=#F05C26;" parent="ZLIagWWz0gJrRWG0zaH9-1" vertex="1">
                    <mxGeometry x="937.5" y="615" width="45" height="45" as="geometry"/>
                </mxCell>
                <mxCell id="b6DJt6rnyvktnEXb7S_j-33" value="&lt;ul&gt;&lt;li&gt;assetID&lt;/li&gt;&lt;li&gt;asset_type&lt;/li&gt;&lt;li&gt;created_date&lt;/li&gt;&lt;li&gt;reference&lt;/li&gt;&lt;li&gt;activity type&lt;/li&gt;&lt;li&gt;book entries&lt;/li&gt;&lt;/ul&gt;" style="rounded=1;whiteSpace=wrap;html=1;strokeColor=#F05C26;align=left;" parent="ZLIagWWz0gJrRWG0zaH9-1" vertex="1">
                    <mxGeometry x="857.5" y="710" width="125" height="120" as="geometry"/>
                </mxCell>
            </root>
        </mxGraphModel>
    </diagram>
    <diagram id="_1yc6M-A12aUXOLZ_90K" name="Functions">
        <mxGraphModel dx="707" dy="790" grid="1" gridSize="10" guides="1" tooltips="1" connect="1" arrows="1" fold="1" page="1" pageScale="1" pageWidth="3300" pageHeight="4681" math="0" shadow="0">
            <root>
                <mxCell id="M4IMHjmusEXuxh6YqbXx-0"/>
                <mxCell id="M4IMHjmusEXuxh6YqbXx-1" parent="M4IMHjmusEXuxh6YqbXx-0"/>
                <mxCell id="OARu9WSy1Fvda7pu0Fav-2" value="" style="edgeStyle=orthogonalEdgeStyle;rounded=0;orthogonalLoop=1;jettySize=auto;html=1;" parent="M4IMHjmusEXuxh6YqbXx-1" source="OARu9WSy1Fvda7pu0Fav-0" target="OARu9WSy1Fvda7pu0Fav-1" edge="1">
                    <mxGeometry relative="1" as="geometry"/>
                </mxCell>
                <mxCell id="OARu9WSy1Fvda7pu0Fav-0" value="&lt;div style=&quot;color: rgb(212 , 212 , 212) ; background-color: rgb(30 , 30 , 30) ; font-family: &amp;#34;droid sans mono&amp;#34; , monospace , monospace , &amp;#34;droid sans fallback&amp;#34; ; font-size: 14px ; line-height: 19px&quot;&gt;&lt;span style=&quot;color: #9cdcfe&quot;&gt;AssetsUpdate&lt;/span&gt;&lt;/div&gt;&lt;div style=&quot;color: rgb(212 , 212 , 212) ; background-color: rgb(30 , 30 , 30) ; font-family: &amp;#34;droid sans mono&amp;#34; , monospace , monospace , &amp;#34;droid sans fallback&amp;#34; ; font-size: 14px ; line-height: 19px&quot;&gt;&lt;div style=&quot;font-family: &amp;#34;droid sans mono&amp;#34; , monospace , monospace , &amp;#34;droid sans fallback&amp;#34; ; line-height: 19px&quot;&gt;&lt;span style=&quot;color: #ce9178&quot;&gt;apps/crm/{businessID}/assets/assets/{assetID}&lt;/span&gt;&lt;/div&gt;&lt;/div&gt;" style="shape=process;whiteSpace=wrap;html=1;backgroundOutline=1;" parent="M4IMHjmusEXuxh6YqbXx-1" vertex="1">
                    <mxGeometry x="230" y="70" width="490" height="60" as="geometry"/>
                </mxCell>
                <mxCell id="OARu9WSy1Fvda7pu0Fav-5" style="edgeStyle=orthogonalEdgeStyle;rounded=0;orthogonalLoop=1;jettySize=auto;html=1;" parent="M4IMHjmusEXuxh6YqbXx-1" source="OARu9WSy1Fvda7pu0Fav-1" target="OARu9WSy1Fvda7pu0Fav-3" edge="1">
                    <mxGeometry relative="1" as="geometry"/>
                </mxCell>
                <mxCell id="OARu9WSy1Fvda7pu0Fav-6" style="edgeStyle=orthogonalEdgeStyle;rounded=0;orthogonalLoop=1;jettySize=auto;html=1;entryX=0.5;entryY=0;entryDx=0;entryDy=0;" parent="M4IMHjmusEXuxh6YqbXx-1" source="OARu9WSy1Fvda7pu0Fav-1" target="OARu9WSy1Fvda7pu0Fav-4" edge="1">
                    <mxGeometry relative="1" as="geometry"/>
                </mxCell>
                <mxCell id="OARu9WSy1Fvda7pu0Fav-1" value="&lt;div style=&quot;color: rgb(212 , 212 , 212) ; background-color: rgb(30 , 30 , 30) ; font-family: &amp;#34;droid sans mono&amp;#34; , monospace , monospace , &amp;#34;droid sans fallback&amp;#34; ; font-size: 14px ; line-height: 19px&quot;&gt;&lt;span style=&quot;color: #9cdcfe&quot;&gt;AssetsUpdate&lt;/span&gt;&lt;/div&gt;&lt;div style=&quot;color: rgb(212 , 212 , 212) ; background-color: rgb(30 , 30 , 30) ; font-family: &amp;#34;droid sans mono&amp;#34; , monospace , monospace , &amp;#34;droid sans fallback&amp;#34; ; font-size: 14px ; line-height: 19px&quot;&gt;&lt;div style=&quot;font-family: &amp;#34;droid sans mono&amp;#34; , monospace , monospace , &amp;#34;droid sans fallback&amp;#34; ; line-height: 19px&quot;&gt;&lt;span style=&quot;color: #ce9178&quot;&gt;apps/crm/{businessID}/stats/total/book&lt;/span&gt;&lt;/div&gt;&lt;/div&gt;" style="shape=process;whiteSpace=wrap;html=1;backgroundOutline=1;" parent="M4IMHjmusEXuxh6YqbXx-1" vertex="1">
                    <mxGeometry x="230" y="210" width="490" height="60" as="geometry"/>
                </mxCell>
                <mxCell id="OARu9WSy1Fvda7pu0Fav-3" value="doc exist" style="rounded=0;whiteSpace=wrap;html=1;" parent="M4IMHjmusEXuxh6YqbXx-1" vertex="1">
                    <mxGeometry x="230" y="320" width="120" height="60" as="geometry"/>
                </mxCell>
                <mxCell id="S0295E1cDuHSQ-eF17qB-1" style="edgeStyle=orthogonalEdgeStyle;rounded=0;orthogonalLoop=1;jettySize=auto;html=1;entryX=0.5;entryY=0;entryDx=0;entryDy=0;" parent="M4IMHjmusEXuxh6YqbXx-1" source="OARu9WSy1Fvda7pu0Fav-4" target="OARu9WSy1Fvda7pu0Fav-8" edge="1">
                    <mxGeometry relative="1" as="geometry"/>
                </mxCell>
                <mxCell id="OARu9WSy1Fvda7pu0Fav-4" value="doc doesn't exist" style="rounded=0;whiteSpace=wrap;html=1;" parent="M4IMHjmusEXuxh6YqbXx-1" vertex="1">
                    <mxGeometry x="600" y="320" width="120" height="60" as="geometry"/>
                </mxCell>
                <mxCell id="S0295E1cDuHSQ-eF17qB-3" style="edgeStyle=orthogonalEdgeStyle;rounded=0;orthogonalLoop=1;jettySize=auto;html=1;entryX=0.5;entryY=0;entryDx=0;entryDy=0;" parent="M4IMHjmusEXuxh6YqbXx-1" source="OARu9WSy1Fvda7pu0Fav-8" target="S0295E1cDuHSQ-eF17qB-2" edge="1">
                    <mxGeometry relative="1" as="geometry"/>
                </mxCell>
                <mxCell id="pYuZtsfAnVX9mvJOmRnT-2" style="edgeStyle=orthogonalEdgeStyle;rounded=0;orthogonalLoop=1;jettySize=auto;html=1;" parent="M4IMHjmusEXuxh6YqbXx-1" source="OARu9WSy1Fvda7pu0Fav-8" target="pYuZtsfAnVX9mvJOmRnT-1" edge="1">
                    <mxGeometry relative="1" as="geometry"/>
                </mxCell>
                <mxCell id="OARu9WSy1Fvda7pu0Fav-8" value="let AssetAllocation = {}&lt;br&gt;let cash = false&lt;br&gt;let credit = false" style="rounded=0;whiteSpace=wrap;html=1;" parent="M4IMHjmusEXuxh6YqbXx-1" vertex="1">
                    <mxGeometry x="560" y="400" width="200" height="70" as="geometry"/>
                </mxCell>
                <mxCell id="pYuZtsfAnVX9mvJOmRnT-9" style="edgeStyle=orthogonalEdgeStyle;rounded=0;orthogonalLoop=1;jettySize=auto;html=1;entryX=0;entryY=0.5;entryDx=0;entryDy=0;" parent="M4IMHjmusEXuxh6YqbXx-1" source="S0295E1cDuHSQ-eF17qB-2" target="Fc-2gEE98_jmoO1Mdcfr-0" edge="1">
                    <mxGeometry relative="1" as="geometry">
                        <Array as="points">
                            <mxPoint x="380" y="605"/>
                            <mxPoint x="380" y="390"/>
                            <mxPoint x="790" y="390"/>
                            <mxPoint x="790" y="350"/>
                        </Array>
                    </mxGeometry>
                </mxCell>
                <mxCell id="S0295E1cDuHSQ-eF17qB-2" value="Cash&lt;br&gt;&lt;br&gt;asset_value = 0&lt;br&gt;asset_data = [total_value, -total_value]" style="rounded=0;whiteSpace=wrap;html=1;" parent="M4IMHjmusEXuxh6YqbXx-1" vertex="1">
                    <mxGeometry x="410" y="520" width="230" height="170" as="geometry"/>
                </mxCell>
                <mxCell id="Fc-2gEE98_jmoO1Mdcfr-3" style="edgeStyle=orthogonalEdgeStyle;rounded=0;orthogonalLoop=1;jettySize=auto;html=1;entryX=0.5;entryY=0;entryDx=0;entryDy=0;" parent="M4IMHjmusEXuxh6YqbXx-1" source="pYuZtsfAnVX9mvJOmRnT-0" target="Fc-2gEE98_jmoO1Mdcfr-0" edge="1">
                    <mxGeometry relative="1" as="geometry"/>
                </mxCell>
                <mxCell id="Fc-2gEE98_jmoO1Mdcfr-4" style="edgeStyle=orthogonalEdgeStyle;rounded=0;orthogonalLoop=1;jettySize=auto;html=1;" parent="M4IMHjmusEXuxh6YqbXx-1" source="pYuZtsfAnVX9mvJOmRnT-0" target="Fc-2gEE98_jmoO1Mdcfr-1" edge="1">
                    <mxGeometry relative="1" as="geometry"/>
                </mxCell>
                <mxCell id="pYuZtsfAnVX9mvJOmRnT-0" value="&lt;div style=&quot;color: rgb(212 , 212 , 212) ; background-color: rgb(30 , 30 , 30) ; font-family: &amp;#34;droid sans mono&amp;#34; , monospace , monospace , &amp;#34;droid sans fallback&amp;#34; ; font-size: 14px ; line-height: 19px&quot;&gt;&lt;span style=&quot;color: #9cdcfe&quot;&gt;AssetsUpdate&lt;/span&gt;&lt;/div&gt;&lt;div style=&quot;color: rgb(212 , 212 , 212) ; background-color: rgb(30 , 30 , 30) ; font-family: &amp;#34;droid sans mono&amp;#34; , monospace , monospace , &amp;#34;droid sans fallback&amp;#34; ; font-size: 14px ; line-height: 19px&quot;&gt;&lt;div style=&quot;font-family: &amp;#34;droid sans mono&amp;#34; , monospace , monospace , &amp;#34;droid sans fallback&amp;#34; ; line-height: 19px&quot;&gt;&lt;span style=&quot;color: #ce9178&quot;&gt;apps/crm/{businessID}/stats/total/assets&lt;/span&gt;&lt;/div&gt;&lt;/div&gt;" style="shape=process;whiteSpace=wrap;html=1;backgroundOutline=1;" parent="M4IMHjmusEXuxh6YqbXx-1" vertex="1">
                    <mxGeometry x="790" y="210" width="490" height="60" as="geometry"/>
                </mxCell>
                <mxCell id="Fc-2gEE98_jmoO1Mdcfr-24" style="edgeStyle=orthogonalEdgeStyle;rounded=0;orthogonalLoop=1;jettySize=auto;html=1;entryX=0;entryY=0.5;entryDx=0;entryDy=0;" parent="M4IMHjmusEXuxh6YqbXx-1" source="pYuZtsfAnVX9mvJOmRnT-1" target="Fc-2gEE98_jmoO1Mdcfr-22" edge="1">
                    <mxGeometry relative="1" as="geometry">
                        <Array as="points">
                            <mxPoint x="1170" y="590"/>
                            <mxPoint x="1170" y="350"/>
                        </Array>
                    </mxGeometry>
                </mxCell>
                <mxCell id="pYuZtsfAnVX9mvJOmRnT-1" value="Credit&lt;br&gt;asset_value = total_value - deposit&lt;br&gt;asset_data = [current_asset_value]" style="rounded=0;whiteSpace=wrap;html=1;" parent="M4IMHjmusEXuxh6YqbXx-1" vertex="1">
                    <mxGeometry x="660" y="520" width="260" height="170" as="geometry"/>
                </mxCell>
                <mxCell id="pYuZtsfAnVX9mvJOmRnT-8" style="edgeStyle=orthogonalEdgeStyle;rounded=0;orthogonalLoop=1;jettySize=auto;html=1;" parent="M4IMHjmusEXuxh6YqbXx-1" source="pYuZtsfAnVX9mvJOmRnT-3" target="pYuZtsfAnVX9mvJOmRnT-7" edge="1">
                    <mxGeometry relative="1" as="geometry"/>
                </mxCell>
                <mxCell id="pYuZtsfAnVX9mvJOmRnT-3" value="&lt;div style=&quot;color: rgb(212 , 212 , 212) ; background-color: rgb(30 , 30 , 30) ; font-family: &amp;#34;droid sans mono&amp;#34; , monospace , monospace , &amp;#34;droid sans fallback&amp;#34; ; font-size: 14px ; line-height: 19px&quot;&gt;&lt;span style=&quot;color: #9cdcfe&quot;&gt;LiabilitiesUpdate&lt;/span&gt;&lt;/div&gt;&lt;div style=&quot;color: rgb(212 , 212 , 212) ; background-color: rgb(30 , 30 , 30) ; font-family: &amp;#34;droid sans mono&amp;#34; , monospace , monospace , &amp;#34;droid sans fallback&amp;#34; ; font-size: 14px ; line-height: 19px&quot;&gt;&lt;div style=&quot;font-family: &amp;#34;droid sans mono&amp;#34; , monospace , monospace , &amp;#34;droid sans fallback&amp;#34; ; line-height: 19px&quot;&gt;&lt;span style=&quot;color: #ce9178&quot;&gt;apps/crm/{businessID}/liabilities/liabilities/{assetID}&lt;/span&gt;&lt;/div&gt;&lt;/div&gt;" style="shape=process;whiteSpace=wrap;html=1;backgroundOutline=1;" parent="M4IMHjmusEXuxh6YqbXx-1" vertex="1">
                    <mxGeometry x="1590" y="80" width="590" height="60" as="geometry"/>
                </mxCell>
                <mxCell id="pYuZtsfAnVX9mvJOmRnT-6" style="edgeStyle=orthogonalEdgeStyle;rounded=0;orthogonalLoop=1;jettySize=auto;html=1;entryX=0;entryY=1;entryDx=0;entryDy=0;" parent="M4IMHjmusEXuxh6YqbXx-1" source="pYuZtsfAnVX9mvJOmRnT-5" target="pYuZtsfAnVX9mvJOmRnT-3" edge="1">
                    <mxGeometry relative="1" as="geometry"/>
                </mxCell>
                <mxCell id="pYuZtsfAnVX9mvJOmRnT-5" value="liability_type: 'Fixed'&lt;br&gt;total_liability: loan amount&lt;br&gt;loan_term: loan_term&lt;br&gt;interest: interest&lt;br&gt;interest_type: interest_type&lt;br&gt;linked_asset: assetID&lt;br&gt;fixed_liability: 'Long Term Loans'&lt;br&gt;created_date: created_date&lt;br&gt;created_month: created_month" style="rounded=0;whiteSpace=wrap;html=1;" parent="M4IMHjmusEXuxh6YqbXx-1" vertex="1">
                    <mxGeometry x="690" y="660" width="190" height="150" as="geometry"/>
                </mxCell>
                <mxCell id="Fc-2gEE98_jmoO1Mdcfr-49" style="edgeStyle=orthogonalEdgeStyle;rounded=0;orthogonalLoop=1;jettySize=auto;html=1;entryX=0.5;entryY=0;entryDx=0;entryDy=0;" parent="M4IMHjmusEXuxh6YqbXx-1" source="pYuZtsfAnVX9mvJOmRnT-7" target="Fc-2gEE98_jmoO1Mdcfr-47" edge="1">
                    <mxGeometry relative="1" as="geometry"/>
                </mxCell>
                <mxCell id="Fc-2gEE98_jmoO1Mdcfr-50" style="edgeStyle=orthogonalEdgeStyle;rounded=0;orthogonalLoop=1;jettySize=auto;html=1;" parent="M4IMHjmusEXuxh6YqbXx-1" source="pYuZtsfAnVX9mvJOmRnT-7" target="Fc-2gEE98_jmoO1Mdcfr-48" edge="1">
                    <mxGeometry relative="1" as="geometry"/>
                </mxCell>
                <mxCell id="pYuZtsfAnVX9mvJOmRnT-7" value="&lt;div style=&quot;color: rgb(212 , 212 , 212) ; background-color: rgb(30 , 30 , 30) ; font-family: &amp;#34;droid sans mono&amp;#34; , monospace , monospace , &amp;#34;droid sans fallback&amp;#34; ; font-size: 14px ; line-height: 19px&quot;&gt;&lt;span style=&quot;color: #9cdcfe&quot;&gt;LiabilitiesUpdate&lt;/span&gt;&lt;/div&gt;&lt;div style=&quot;color: rgb(212 , 212 , 212) ; background-color: rgb(30 , 30 , 30) ; font-family: &amp;#34;droid sans mono&amp;#34; , monospace , monospace , &amp;#34;droid sans fallback&amp;#34; ; font-size: 14px ; line-height: 19px&quot;&gt;&lt;div style=&quot;font-family: &amp;#34;droid sans mono&amp;#34; , monospace , monospace , &amp;#34;droid sans fallback&amp;#34; ; line-height: 19px&quot;&gt;&lt;span style=&quot;color: #ce9178&quot;&gt;apps/crm/{businessID}/stats/total/book&lt;/span&gt;&lt;/div&gt;&lt;/div&gt;" style="shape=process;whiteSpace=wrap;html=1;backgroundOutline=1;" parent="M4IMHjmusEXuxh6YqbXx-1" vertex="1">
                    <mxGeometry x="1640" y="210" width="490" height="60" as="geometry"/>
                </mxCell>
                <mxCell id="Fc-2gEE98_jmoO1Mdcfr-2" style="edgeStyle=orthogonalEdgeStyle;rounded=0;orthogonalLoop=1;jettySize=auto;html=1;entryX=0;entryY=0.5;entryDx=0;entryDy=0;" parent="M4IMHjmusEXuxh6YqbXx-1" source="Fc-2gEE98_jmoO1Mdcfr-0" target="Fc-2gEE98_jmoO1Mdcfr-1" edge="1">
                    <mxGeometry relative="1" as="geometry"/>
                </mxCell>
                <mxCell id="Fc-2gEE98_jmoO1Mdcfr-9" style="edgeStyle=orthogonalEdgeStyle;rounded=0;orthogonalLoop=1;jettySize=auto;html=1;" parent="M4IMHjmusEXuxh6YqbXx-1" source="Fc-2gEE98_jmoO1Mdcfr-0" edge="1">
                    <mxGeometry relative="1" as="geometry">
                        <mxPoint x="870" y="410" as="targetPoint"/>
                    </mxGeometry>
                </mxCell>
                <mxCell id="Fc-2gEE98_jmoO1Mdcfr-0" value="Fixed" style="rounded=0;whiteSpace=wrap;html=1;" parent="M4IMHjmusEXuxh6YqbXx-1" vertex="1">
                    <mxGeometry x="830" y="320" width="80" height="60" as="geometry"/>
                </mxCell>
                <mxCell id="Fc-2gEE98_jmoO1Mdcfr-8" style="edgeStyle=orthogonalEdgeStyle;rounded=0;orthogonalLoop=1;jettySize=auto;html=1;entryX=0.385;entryY=0.017;entryDx=0;entryDy=0;entryPerimeter=0;" parent="M4IMHjmusEXuxh6YqbXx-1" source="Fc-2gEE98_jmoO1Mdcfr-1" target="Fc-2gEE98_jmoO1Mdcfr-6" edge="1">
                    <mxGeometry relative="1" as="geometry">
                        <Array as="points">
                            <mxPoint x="1000" y="401"/>
                            <mxPoint x="1010" y="401"/>
                        </Array>
                    </mxGeometry>
                </mxCell>
                <mxCell id="Fc-2gEE98_jmoO1Mdcfr-1" value="Current" style="rounded=0;whiteSpace=wrap;html=1;" parent="M4IMHjmusEXuxh6YqbXx-1" vertex="1">
                    <mxGeometry x="960" y="320" width="80" height="60" as="geometry"/>
                </mxCell>
                <mxCell id="Fc-2gEE98_jmoO1Mdcfr-10" style="edgeStyle=orthogonalEdgeStyle;rounded=0;orthogonalLoop=1;jettySize=auto;html=1;entryX=0;entryY=0.5;entryDx=0;entryDy=0;" parent="M4IMHjmusEXuxh6YqbXx-1" source="Fc-2gEE98_jmoO1Mdcfr-5" target="Fc-2gEE98_jmoO1Mdcfr-7" edge="1">
                    <mxGeometry relative="1" as="geometry">
                        <Array as="points">
                            <mxPoint x="880" y="490"/>
                            <mxPoint x="950" y="490"/>
                            <mxPoint x="950" y="530"/>
                        </Array>
                    </mxGeometry>
                </mxCell>
                <mxCell id="Fc-2gEE98_jmoO1Mdcfr-5" value="fixed_asset_value = total_value&lt;br&gt;fixed_asset_data = [total_value]" style="rounded=0;whiteSpace=wrap;html=1;" parent="M4IMHjmusEXuxh6YqbXx-1" vertex="1">
                    <mxGeometry x="780" y="410" width="160" height="60" as="geometry"/>
                </mxCell>
                <mxCell id="Fc-2gEE98_jmoO1Mdcfr-11" style="edgeStyle=orthogonalEdgeStyle;rounded=0;orthogonalLoop=1;jettySize=auto;html=1;entryX=0.5;entryY=0;entryDx=0;entryDy=0;" parent="M4IMHjmusEXuxh6YqbXx-1" source="Fc-2gEE98_jmoO1Mdcfr-6" target="Fc-2gEE98_jmoO1Mdcfr-7" edge="1">
                    <mxGeometry relative="1" as="geometry"/>
                </mxCell>
                <mxCell id="Fc-2gEE98_jmoO1Mdcfr-6" value="current_asset_value = total_value&lt;br&gt;current_asset_data = [total_value]" style="rounded=0;whiteSpace=wrap;html=1;" parent="M4IMHjmusEXuxh6YqbXx-1" vertex="1">
                    <mxGeometry x="960" y="410" width="160" height="60" as="geometry"/>
                </mxCell>
                <mxCell id="Fc-2gEE98_jmoO1Mdcfr-14" style="edgeStyle=orthogonalEdgeStyle;rounded=0;orthogonalLoop=1;jettySize=auto;html=1;entryX=0.5;entryY=0;entryDx=0;entryDy=0;" parent="M4IMHjmusEXuxh6YqbXx-1" source="Fc-2gEE98_jmoO1Mdcfr-7" target="Fc-2gEE98_jmoO1Mdcfr-12" edge="1">
                    <mxGeometry relative="1" as="geometry"/>
                </mxCell>
                <mxCell id="Fc-2gEE98_jmoO1Mdcfr-15" style="edgeStyle=orthogonalEdgeStyle;rounded=0;orthogonalLoop=1;jettySize=auto;html=1;entryX=0.5;entryY=0;entryDx=0;entryDy=0;" parent="M4IMHjmusEXuxh6YqbXx-1" source="Fc-2gEE98_jmoO1Mdcfr-7" target="Fc-2gEE98_jmoO1Mdcfr-13" edge="1">
                    <mxGeometry relative="1" as="geometry"/>
                </mxCell>
                <mxCell id="Fc-2gEE98_jmoO1Mdcfr-7" value="current_asset_value = -total_value&lt;br&gt;current_asset_data = [-total_value]" style="rounded=0;whiteSpace=wrap;html=1;" parent="M4IMHjmusEXuxh6YqbXx-1" vertex="1">
                    <mxGeometry x="980" y="500" width="170" height="60" as="geometry"/>
                </mxCell>
                <mxCell id="Fc-2gEE98_jmoO1Mdcfr-12" value="asset type = total_value" style="rounded=0;whiteSpace=wrap;html=1;fillColor=#008a00;strokeColor=#005700;fontColor=#ffffff;" parent="M4IMHjmusEXuxh6YqbXx-1" vertex="1">
                    <mxGeometry x="940" y="600" width="120" height="60" as="geometry"/>
                </mxCell>
                <mxCell id="Fc-2gEE98_jmoO1Mdcfr-13" value="cash = - total_value" style="rounded=0;whiteSpace=wrap;html=1;fillColor=#a20025;strokeColor=#6F0000;fontColor=#ffffff;" parent="M4IMHjmusEXuxh6YqbXx-1" vertex="1">
                    <mxGeometry x="1090" y="600" width="120" height="60" as="geometry"/>
                </mxCell>
                <mxCell id="Fc-2gEE98_jmoO1Mdcfr-16" value="1" style="ellipse;whiteSpace=wrap;html=1;aspect=fixed;" parent="M4IMHjmusEXuxh6YqbXx-1" vertex="1">
                    <mxGeometry x="620" y="520" width="20" height="20" as="geometry"/>
                </mxCell>
                <mxCell id="Fc-2gEE98_jmoO1Mdcfr-17" value="1" style="ellipse;whiteSpace=wrap;html=1;aspect=fixed;" parent="M4IMHjmusEXuxh6YqbXx-1" vertex="1">
                    <mxGeometry x="1040" y="600" width="20" height="20" as="geometry"/>
                </mxCell>
                <mxCell id="Fc-2gEE98_jmoO1Mdcfr-18" value="1" style="ellipse;whiteSpace=wrap;html=1;aspect=fixed;" parent="M4IMHjmusEXuxh6YqbXx-1" vertex="1">
                    <mxGeometry x="1190" y="600" width="20" height="20" as="geometry"/>
                </mxCell>
                <mxCell id="Fc-2gEE98_jmoO1Mdcfr-19" value="1" style="ellipse;whiteSpace=wrap;html=1;aspect=fixed;" parent="M4IMHjmusEXuxh6YqbXx-1" vertex="1">
                    <mxGeometry x="1100" y="410" width="20" height="20" as="geometry"/>
                </mxCell>
                <mxCell id="Fc-2gEE98_jmoO1Mdcfr-20" value="1" style="ellipse;whiteSpace=wrap;html=1;aspect=fixed;" parent="M4IMHjmusEXuxh6YqbXx-1" vertex="1">
                    <mxGeometry x="920" y="410" width="20" height="20" as="geometry"/>
                </mxCell>
                <mxCell id="Fc-2gEE98_jmoO1Mdcfr-21" value="1" style="ellipse;whiteSpace=wrap;html=1;aspect=fixed;" parent="M4IMHjmusEXuxh6YqbXx-1" vertex="1">
                    <mxGeometry x="1130" y="500" width="20" height="20" as="geometry"/>
                </mxCell>
                <mxCell id="Fc-2gEE98_jmoO1Mdcfr-35" style="edgeStyle=orthogonalEdgeStyle;rounded=0;orthogonalLoop=1;jettySize=auto;html=1;entryX=0.606;entryY=0.017;entryDx=0;entryDy=0;entryPerimeter=0;" parent="M4IMHjmusEXuxh6YqbXx-1" source="Fc-2gEE98_jmoO1Mdcfr-22" target="Fc-2gEE98_jmoO1Mdcfr-27" edge="1">
                    <mxGeometry relative="1" as="geometry"/>
                </mxCell>
                <mxCell id="Fc-2gEE98_jmoO1Mdcfr-22" value="Fixed" style="rounded=0;whiteSpace=wrap;html=1;" parent="M4IMHjmusEXuxh6YqbXx-1" vertex="1">
                    <mxGeometry x="1240" y="320" width="80" height="60" as="geometry"/>
                </mxCell>
                <mxCell id="Fc-2gEE98_jmoO1Mdcfr-25" style="edgeStyle=orthogonalEdgeStyle;rounded=0;orthogonalLoop=1;jettySize=auto;html=1;entryX=1;entryY=0.5;entryDx=0;entryDy=0;" parent="M4IMHjmusEXuxh6YqbXx-1" source="Fc-2gEE98_jmoO1Mdcfr-23" target="Fc-2gEE98_jmoO1Mdcfr-22" edge="1">
                    <mxGeometry relative="1" as="geometry"/>
                </mxCell>
                <mxCell id="Fc-2gEE98_jmoO1Mdcfr-36" style="edgeStyle=orthogonalEdgeStyle;rounded=0;orthogonalLoop=1;jettySize=auto;html=1;entryX=0.369;entryY=-0.033;entryDx=0;entryDy=0;entryPerimeter=0;" parent="M4IMHjmusEXuxh6YqbXx-1" source="Fc-2gEE98_jmoO1Mdcfr-23" target="Fc-2gEE98_jmoO1Mdcfr-28" edge="1">
                    <mxGeometry relative="1" as="geometry"/>
                </mxCell>
                <mxCell id="Fc-2gEE98_jmoO1Mdcfr-23" value="Current" style="rounded=0;whiteSpace=wrap;html=1;" parent="M4IMHjmusEXuxh6YqbXx-1" vertex="1">
                    <mxGeometry x="1370" y="320" width="80" height="60" as="geometry"/>
                </mxCell>
                <mxCell id="Fc-2gEE98_jmoO1Mdcfr-26" value="2" style="ellipse;whiteSpace=wrap;html=1;aspect=fixed;" parent="M4IMHjmusEXuxh6YqbXx-1" vertex="1">
                    <mxGeometry x="900" y="520" width="20" height="20" as="geometry"/>
                </mxCell>
                <mxCell id="Fc-2gEE98_jmoO1Mdcfr-37" style="edgeStyle=orthogonalEdgeStyle;rounded=0;orthogonalLoop=1;jettySize=auto;html=1;" parent="M4IMHjmusEXuxh6YqbXx-1" source="Fc-2gEE98_jmoO1Mdcfr-27" target="Fc-2gEE98_jmoO1Mdcfr-29" edge="1">
                    <mxGeometry relative="1" as="geometry"/>
                </mxCell>
                <mxCell id="Fc-2gEE98_jmoO1Mdcfr-27" value="fixed_asset_value = total_value&lt;br&gt;fixed_asset_data = [total_value]" style="rounded=0;whiteSpace=wrap;html=1;" parent="M4IMHjmusEXuxh6YqbXx-1" vertex="1">
                    <mxGeometry x="1180" y="410" width="160" height="60" as="geometry"/>
                </mxCell>
                <mxCell id="Fc-2gEE98_jmoO1Mdcfr-38" style="edgeStyle=orthogonalEdgeStyle;rounded=0;orthogonalLoop=1;jettySize=auto;html=1;entryX=0.5;entryY=0;entryDx=0;entryDy=0;" parent="M4IMHjmusEXuxh6YqbXx-1" source="Fc-2gEE98_jmoO1Mdcfr-28" target="Fc-2gEE98_jmoO1Mdcfr-29" edge="1">
                    <mxGeometry relative="1" as="geometry"/>
                </mxCell>
                <mxCell id="Fc-2gEE98_jmoO1Mdcfr-28" value="current_asset_value = total_value&lt;br&gt;current_asset_data = [total_value]" style="rounded=0;whiteSpace=wrap;html=1;" parent="M4IMHjmusEXuxh6YqbXx-1" vertex="1">
                    <mxGeometry x="1360" y="410" width="160" height="60" as="geometry"/>
                </mxCell>
                <mxCell id="Fc-2gEE98_jmoO1Mdcfr-41" style="edgeStyle=orthogonalEdgeStyle;rounded=0;orthogonalLoop=1;jettySize=auto;html=1;entryX=0.5;entryY=0;entryDx=0;entryDy=0;" parent="M4IMHjmusEXuxh6YqbXx-1" source="Fc-2gEE98_jmoO1Mdcfr-29" target="Fc-2gEE98_jmoO1Mdcfr-39" edge="1">
                    <mxGeometry relative="1" as="geometry"/>
                </mxCell>
                <mxCell id="Fc-2gEE98_jmoO1Mdcfr-42" style="edgeStyle=orthogonalEdgeStyle;rounded=0;orthogonalLoop=1;jettySize=auto;html=1;entryX=0.5;entryY=0;entryDx=0;entryDy=0;" parent="M4IMHjmusEXuxh6YqbXx-1" source="Fc-2gEE98_jmoO1Mdcfr-29" target="Fc-2gEE98_jmoO1Mdcfr-40" edge="1">
                    <mxGeometry relative="1" as="geometry"/>
                </mxCell>
                <mxCell id="Fc-2gEE98_jmoO1Mdcfr-29" value="current_asset_value = -deposit&lt;br&gt;current_asset_data = [-deposit]" style="rounded=0;whiteSpace=wrap;html=1;" parent="M4IMHjmusEXuxh6YqbXx-1" vertex="1">
                    <mxGeometry x="1330" y="510" width="200" height="60" as="geometry"/>
                </mxCell>
                <mxCell id="Fc-2gEE98_jmoO1Mdcfr-30" value="2" style="ellipse;whiteSpace=wrap;html=1;aspect=fixed;" parent="M4IMHjmusEXuxh6YqbXx-1" vertex="1">
                    <mxGeometry x="1320" y="410" width="20" height="20" as="geometry"/>
                </mxCell>
                <mxCell id="Fc-2gEE98_jmoO1Mdcfr-31" value="2" style="ellipse;whiteSpace=wrap;html=1;aspect=fixed;" parent="M4IMHjmusEXuxh6YqbXx-1" vertex="1">
                    <mxGeometry x="1500" y="410" width="20" height="20" as="geometry"/>
                </mxCell>
                <mxCell id="Fc-2gEE98_jmoO1Mdcfr-32" value="2" style="ellipse;whiteSpace=wrap;html=1;aspect=fixed;" parent="M4IMHjmusEXuxh6YqbXx-1" vertex="1">
                    <mxGeometry x="1510" y="510" width="20" height="20" as="geometry"/>
                </mxCell>
                <mxCell id="Fc-2gEE98_jmoO1Mdcfr-39" value="asset type = total_value" style="rounded=0;whiteSpace=wrap;html=1;fillColor=#008a00;strokeColor=#005700;fontColor=#ffffff;" parent="M4IMHjmusEXuxh6YqbXx-1" vertex="1">
                    <mxGeometry x="1295" y="600" width="120" height="60" as="geometry"/>
                </mxCell>
                <mxCell id="Fc-2gEE98_jmoO1Mdcfr-40" value="cash = - deposit" style="rounded=0;whiteSpace=wrap;html=1;fillColor=#a20025;strokeColor=#6F0000;fontColor=#ffffff;" parent="M4IMHjmusEXuxh6YqbXx-1" vertex="1">
                    <mxGeometry x="1445" y="600" width="120" height="60" as="geometry"/>
                </mxCell>
                <mxCell id="Fc-2gEE98_jmoO1Mdcfr-43" value="2" style="ellipse;whiteSpace=wrap;html=1;aspect=fixed;" parent="M4IMHjmusEXuxh6YqbXx-1" vertex="1">
                    <mxGeometry x="1545" y="600" width="20" height="20" as="geometry"/>
                </mxCell>
                <mxCell id="Fc-2gEE98_jmoO1Mdcfr-44" value="2" style="ellipse;whiteSpace=wrap;html=1;aspect=fixed;" parent="M4IMHjmusEXuxh6YqbXx-1" vertex="1">
                    <mxGeometry x="1395" y="600" width="20" height="20" as="geometry"/>
                </mxCell>
                <mxCell id="Fc-2gEE98_jmoO1Mdcfr-47" value="doc exist" style="rounded=0;whiteSpace=wrap;html=1;" parent="M4IMHjmusEXuxh6YqbXx-1" vertex="1">
                    <mxGeometry x="1710" y="330" width="120" height="60" as="geometry"/>
                </mxCell>
                <mxCell id="Fc-2gEE98_jmoO1Mdcfr-53" style="edgeStyle=orthogonalEdgeStyle;rounded=0;orthogonalLoop=1;jettySize=auto;html=1;entryX=0.5;entryY=0;entryDx=0;entryDy=0;" parent="M4IMHjmusEXuxh6YqbXx-1" source="Fc-2gEE98_jmoO1Mdcfr-48" target="Fc-2gEE98_jmoO1Mdcfr-51" edge="1">
                    <mxGeometry relative="1" as="geometry"/>
                </mxCell>
                <mxCell id="Fc-2gEE98_jmoO1Mdcfr-48" value="doc doesn't exist" style="rounded=0;whiteSpace=wrap;html=1;" parent="M4IMHjmusEXuxh6YqbXx-1" vertex="1">
                    <mxGeometry x="2080" y="330" width="120" height="60" as="geometry"/>
                </mxCell>
                <mxCell id="Fc-2gEE98_jmoO1Mdcfr-54" style="edgeStyle=orthogonalEdgeStyle;rounded=0;orthogonalLoop=1;jettySize=auto;html=1;entryX=0.5;entryY=0;entryDx=0;entryDy=0;" parent="M4IMHjmusEXuxh6YqbXx-1" source="Fc-2gEE98_jmoO1Mdcfr-51" target="Fc-2gEE98_jmoO1Mdcfr-52" edge="1">
                    <mxGeometry relative="1" as="geometry"/>
                </mxCell>
                <mxCell id="Fc-2gEE98_jmoO1Mdcfr-51" value="liability_value = 0&lt;br&gt;liability_data = [total_liability]" style="rounded=0;whiteSpace=wrap;html=1;" parent="M4IMHjmusEXuxh6YqbXx-1" vertex="1">
                    <mxGeometry x="1880" y="447.5" width="185" height="125" as="geometry"/>
                </mxCell>
                <mxCell id="Fc-2gEE98_jmoO1Mdcfr-60" style="edgeStyle=orthogonalEdgeStyle;rounded=0;orthogonalLoop=1;jettySize=auto;html=1;entryX=0.5;entryY=0;entryDx=0;entryDy=0;" parent="M4IMHjmusEXuxh6YqbXx-1" source="Fc-2gEE98_jmoO1Mdcfr-52" target="Fc-2gEE98_jmoO1Mdcfr-56" edge="1">
                    <mxGeometry relative="1" as="geometry"/>
                </mxCell>
                <mxCell id="Fc-2gEE98_jmoO1Mdcfr-61" style="edgeStyle=orthogonalEdgeStyle;rounded=0;orthogonalLoop=1;jettySize=auto;html=1;entryX=0.5;entryY=0;entryDx=0;entryDy=0;" parent="M4IMHjmusEXuxh6YqbXx-1" source="Fc-2gEE98_jmoO1Mdcfr-52" target="Fc-2gEE98_jmoO1Mdcfr-55" edge="1">
                    <mxGeometry relative="1" as="geometry"/>
                </mxCell>
                <mxCell id="Fc-2gEE98_jmoO1Mdcfr-62" style="edgeStyle=orthogonalEdgeStyle;rounded=0;orthogonalLoop=1;jettySize=auto;html=1;" parent="M4IMHjmusEXuxh6YqbXx-1" source="Fc-2gEE98_jmoO1Mdcfr-52" target="Fc-2gEE98_jmoO1Mdcfr-57" edge="1">
                    <mxGeometry relative="1" as="geometry"/>
                </mxCell>
                <mxCell id="Fc-2gEE98_jmoO1Mdcfr-52" value="&lt;div style=&quot;color: rgb(212 , 212 , 212) ; background-color: rgb(30 , 30 , 30) ; font-family: &amp;#34;droid sans mono&amp;#34; , monospace , monospace , &amp;#34;droid sans fallback&amp;#34; ; font-size: 14px ; line-height: 19px&quot;&gt;&lt;span style=&quot;color: #9cdcfe&quot;&gt;LiabilityUpdate&lt;/span&gt;&lt;/div&gt;&lt;div style=&quot;color: rgb(212 , 212 , 212) ; background-color: rgb(30 , 30 , 30) ; font-family: &amp;#34;droid sans mono&amp;#34; , monospace , monospace , &amp;#34;droid sans fallback&amp;#34; ; font-size: 14px ; line-height: 19px&quot;&gt;&lt;div style=&quot;font-family: &amp;#34;droid sans mono&amp;#34; , monospace , monospace , &amp;#34;droid sans fallback&amp;#34; ; line-height: 19px&quot;&gt;&lt;span style=&quot;color: #ce9178&quot;&gt;apps/crm/{businessID}/stats/total/liability&lt;/span&gt;&lt;/div&gt;&lt;/div&gt;" style="shape=process;whiteSpace=wrap;html=1;backgroundOutline=1;" parent="M4IMHjmusEXuxh6YqbXx-1" vertex="1">
                    <mxGeometry x="1727.5" y="610" width="490" height="60" as="geometry"/>
                </mxCell>
                <mxCell id="Fc-2gEE98_jmoO1Mdcfr-64" style="edgeStyle=orthogonalEdgeStyle;rounded=0;orthogonalLoop=1;jettySize=auto;html=1;entryX=0.428;entryY=0;entryDx=0;entryDy=0;entryPerimeter=0;" parent="M4IMHjmusEXuxh6YqbXx-1" source="Fc-2gEE98_jmoO1Mdcfr-55" target="Fc-2gEE98_jmoO1Mdcfr-59" edge="1">
                    <mxGeometry relative="1" as="geometry"/>
                </mxCell>
                <mxCell id="Fc-2gEE98_jmoO1Mdcfr-55" value="Fixed" style="rounded=0;whiteSpace=wrap;html=1;" parent="M4IMHjmusEXuxh6YqbXx-1" vertex="1">
                    <mxGeometry x="1802.5" y="700" width="80" height="60" as="geometry"/>
                </mxCell>
                <mxCell id="Fc-2gEE98_jmoO1Mdcfr-56" value="Current" style="rounded=0;whiteSpace=wrap;html=1;" parent="M4IMHjmusEXuxh6YqbXx-1" vertex="1">
                    <mxGeometry x="1932.5" y="700" width="80" height="60" as="geometry"/>
                </mxCell>
                <mxCell id="Fc-2gEE98_jmoO1Mdcfr-57" value="Contigent" style="rounded=0;whiteSpace=wrap;html=1;" parent="M4IMHjmusEXuxh6YqbXx-1" vertex="1">
                    <mxGeometry x="2062.5" y="700" width="80" height="60" as="geometry"/>
                </mxCell>
                <mxCell id="Fc-2gEE98_jmoO1Mdcfr-58" value="2" style="ellipse;whiteSpace=wrap;html=1;aspect=fixed;" parent="M4IMHjmusEXuxh6YqbXx-1" vertex="1">
                    <mxGeometry x="860" y="660" width="20" height="20" as="geometry"/>
                </mxCell>
                <mxCell id="Fc-2gEE98_jmoO1Mdcfr-66" value="" style="edgeStyle=orthogonalEdgeStyle;rounded=0;orthogonalLoop=1;jettySize=auto;html=1;" parent="M4IMHjmusEXuxh6YqbXx-1" source="Fc-2gEE98_jmoO1Mdcfr-59" target="Fc-2gEE98_jmoO1Mdcfr-65" edge="1">
                    <mxGeometry relative="1" as="geometry"/>
                </mxCell>
                <mxCell id="Fc-2gEE98_jmoO1Mdcfr-59" value="fixed_liability_value = total_liability&lt;br&gt;fixed_liability_data = [total_liability]" style="rounded=0;whiteSpace=wrap;html=1;" parent="M4IMHjmusEXuxh6YqbXx-1" vertex="1">
                    <mxGeometry x="1772.5" y="790" width="160" height="60" as="geometry"/>
                </mxCell>
                <mxCell id="Fc-2gEE98_jmoO1Mdcfr-65" value="liability_type = total liability" style="rounded=0;whiteSpace=wrap;html=1;fillColor=#a20025;strokeColor=#6F0000;fontColor=#ffffff;" parent="M4IMHjmusEXuxh6YqbXx-1" vertex="1">
                    <mxGeometry x="1772.5" y="870" width="160" height="60" as="geometry"/>
                </mxCell>
                <mxCell id="Fc-2gEE98_jmoO1Mdcfr-63" value="2" style="ellipse;whiteSpace=wrap;html=1;aspect=fixed;" parent="M4IMHjmusEXuxh6YqbXx-1" vertex="1">
                    <mxGeometry x="1912.5" y="790" width="20" height="20" as="geometry"/>
                </mxCell>
                <mxCell id="Fc-2gEE98_jmoO1Mdcfr-67" value="2" style="ellipse;whiteSpace=wrap;html=1;aspect=fixed;" parent="M4IMHjmusEXuxh6YqbXx-1" vertex="1">
                    <mxGeometry x="1912.5" y="870" width="20" height="20" as="geometry"/>
                </mxCell>
            </root>
        </mxGraphModel>
    </diagram>
    <diagram id="kWH0ikPrZBJ0sPh8avsi" name="Questions">
        &#xa;        
        <mxGraphModel dx="675" dy="790" grid="1" gridSize="10" guides="1" tooltips="1" connect="1" arrows="1" fold="1" page="1" pageScale="1" pageWidth="3300" pageHeight="4681" math="0" shadow="0">
            &#xa;            
            <root>
                &#xa;                
                <mxCell id="IPYmmoNChUyLdm5GVZw2-0"/>
                &#xa;                
                <mxCell id="IPYmmoNChUyLdm5GVZw2-1" parent="IPYmmoNChUyLdm5GVZw2-0"/>
                &#xa;                
                <mxCell id="waOp5gOY9GueCPtudxNK-5" style="edgeStyle=orthogonalEdgeStyle;rounded=0;orthogonalLoop=1;jettySize=auto;html=1;" parent="IPYmmoNChUyLdm5GVZw2-1" source="waOp5gOY9GueCPtudxNK-0" target="waOp5gOY9GueCPtudxNK-1" edge="1">
                    &#xa;                    
                    <mxGeometry relative="1" as="geometry"/>
                    &#xa;                
                </mxCell>
                &#xa;                
                <mxCell id="waOp5gOY9GueCPtudxNK-6" style="edgeStyle=orthogonalEdgeStyle;rounded=0;orthogonalLoop=1;jettySize=auto;html=1;" parent="IPYmmoNChUyLdm5GVZw2-1" source="waOp5gOY9GueCPtudxNK-0" target="waOp5gOY9GueCPtudxNK-2" edge="1">
                    &#xa;                    
                    <mxGeometry relative="1" as="geometry"/>
                    &#xa;                
                </mxCell>
                &#xa;                
                <mxCell id="waOp5gOY9GueCPtudxNK-0" value="Asset" style="whiteSpace=wrap;html=1;aspect=fixed;" parent="IPYmmoNChUyLdm5GVZw2-1" vertex="1">
                    &#xa;                    
                    <mxGeometry x="460" y="50" width="80" height="80" as="geometry"/>
                    &#xa;                
                </mxCell>
                &#xa;                
                <mxCell id="XJrA5cl6L4-JZxvm1Wz_-20" style="edgeStyle=orthogonalEdgeStyle;rounded=0;orthogonalLoop=1;jettySize=auto;html=1;entryX=0.5;entryY=0;entryDx=0;entryDy=0;" parent="IPYmmoNChUyLdm5GVZw2-1" source="waOp5gOY9GueCPtudxNK-1" target="XJrA5cl6L4-JZxvm1Wz_-0" edge="1">
                    &#xa;                    
                    <mxGeometry relative="1" as="geometry">
                        &#xa;                        
                        <mxPoint x="70" y="270" as="targetPoint"/>
                        &#xa;                    
                    </mxGeometry>
                    &#xa;                
                </mxCell>
                &#xa;                
                <mxCell id="XJrA5cl6L4-JZxvm1Wz_-21" style="edgeStyle=orthogonalEdgeStyle;rounded=0;orthogonalLoop=1;jettySize=auto;html=1;" parent="IPYmmoNChUyLdm5GVZw2-1" source="waOp5gOY9GueCPtudxNK-1" target="XJrA5cl6L4-JZxvm1Wz_-1" edge="1">
                    &#xa;                    
                    <mxGeometry relative="1" as="geometry"/>
                    &#xa;                
                </mxCell>
                &#xa;                
                <mxCell id="XJrA5cl6L4-JZxvm1Wz_-22" style="edgeStyle=orthogonalEdgeStyle;rounded=0;orthogonalLoop=1;jettySize=auto;html=1;entryX=0.5;entryY=0;entryDx=0;entryDy=0;" parent="IPYmmoNChUyLdm5GVZw2-1" source="waOp5gOY9GueCPtudxNK-1" target="XJrA5cl6L4-JZxvm1Wz_-6" edge="1">
                    &#xa;                    
                    <mxGeometry relative="1" as="geometry"/>
                    &#xa;                
                </mxCell>
                &#xa;                
                <mxCell id="XJrA5cl6L4-JZxvm1Wz_-23" style="edgeStyle=orthogonalEdgeStyle;rounded=0;orthogonalLoop=1;jettySize=auto;html=1;entryX=0.5;entryY=0;entryDx=0;entryDy=0;" parent="IPYmmoNChUyLdm5GVZw2-1" source="waOp5gOY9GueCPtudxNK-1" target="XJrA5cl6L4-JZxvm1Wz_-3" edge="1">
                    &#xa;                    
                    <mxGeometry relative="1" as="geometry">
                        &#xa;                        
                        <mxPoint x="300" y="270" as="targetPoint"/>
                        &#xa;                    
                    </mxGeometry>
                    &#xa;                
                </mxCell>
                &#xa;                
                <mxCell id="XJrA5cl6L4-JZxvm1Wz_-26" style="edgeStyle=orthogonalEdgeStyle;rounded=0;orthogonalLoop=1;jettySize=auto;html=1;entryX=0.5;entryY=0;entryDx=0;entryDy=0;" parent="IPYmmoNChUyLdm5GVZw2-1" source="waOp5gOY9GueCPtudxNK-1" target="XJrA5cl6L4-JZxvm1Wz_-4" edge="1">
                    &#xa;                    
                    <mxGeometry relative="1" as="geometry"/>
                    &#xa;                
                </mxCell>
                &#xa;                
                <mxCell id="XJrA5cl6L4-JZxvm1Wz_-27" style="edgeStyle=orthogonalEdgeStyle;rounded=0;orthogonalLoop=1;jettySize=auto;html=1;entryX=0.5;entryY=0;entryDx=0;entryDy=0;" parent="IPYmmoNChUyLdm5GVZw2-1" source="waOp5gOY9GueCPtudxNK-1" target="XJrA5cl6L4-JZxvm1Wz_-2" edge="1">
                    &#xa;                    
                    <mxGeometry relative="1" as="geometry"/>
                    &#xa;                
                </mxCell>
                &#xa;                
                <mxCell id="XJrA5cl6L4-JZxvm1Wz_-28" style="edgeStyle=orthogonalEdgeStyle;rounded=0;orthogonalLoop=1;jettySize=auto;html=1;entryX=0.5;entryY=0;entryDx=0;entryDy=0;" parent="IPYmmoNChUyLdm5GVZw2-1" source="waOp5gOY9GueCPtudxNK-1" target="XJrA5cl6L4-JZxvm1Wz_-5" edge="1">
                    &#xa;                    
                    <mxGeometry relative="1" as="geometry">
                        &#xa;                        
                        <mxPoint x="510" y="270" as="targetPoint"/>
                        &#xa;                    
                    </mxGeometry>
                    &#xa;                
                </mxCell>
                &#xa;                
                <mxCell id="waOp5gOY9GueCPtudxNK-1" value="Current" style="ellipse;whiteSpace=wrap;html=1;aspect=fixed;" parent="IPYmmoNChUyLdm5GVZw2-1" vertex="1">
                    &#xa;                    
                    <mxGeometry x="340" y="180" width="80" height="80" as="geometry"/>
                    &#xa;                
                </mxCell>
                &#xa;                
                <mxCell id="XJrA5cl6L4-JZxvm1Wz_-54" style="edgeStyle=orthogonalEdgeStyle;rounded=0;orthogonalLoop=1;jettySize=auto;html=1;entryX=0.5;entryY=0;entryDx=0;entryDy=0;" parent="IPYmmoNChUyLdm5GVZw2-1" source="waOp5gOY9GueCPtudxNK-2" target="XJrA5cl6L4-JZxvm1Wz_-48" edge="1">
                    &#xa;                    
                    <mxGeometry relative="1" as="geometry"/>
                    &#xa;                
                </mxCell>
                &#xa;                
                <mxCell id="XJrA5cl6L4-JZxvm1Wz_-55" style="edgeStyle=orthogonalEdgeStyle;rounded=0;orthogonalLoop=1;jettySize=auto;html=1;" parent="IPYmmoNChUyLdm5GVZw2-1" source="waOp5gOY9GueCPtudxNK-2" target="XJrA5cl6L4-JZxvm1Wz_-40" edge="1">
                    &#xa;                    
                    <mxGeometry relative="1" as="geometry"/>
                    &#xa;                
                </mxCell>
                &#xa;                
                <mxCell id="uoXhtfPmWp4suCaWeP9a-19" style="edgeStyle=orthogonalEdgeStyle;rounded=0;orthogonalLoop=1;jettySize=auto;html=1;entryX=0.5;entryY=0;entryDx=0;entryDy=0;" parent="IPYmmoNChUyLdm5GVZw2-1" source="waOp5gOY9GueCPtudxNK-2" target="XJrA5cl6L4-JZxvm1Wz_-47" edge="1">
                    &#xa;                    
                    <mxGeometry relative="1" as="geometry"/>
                    &#xa;                
                </mxCell>
                &#xa;                
                <mxCell id="uoXhtfPmWp4suCaWeP9a-20" style="edgeStyle=orthogonalEdgeStyle;rounded=0;orthogonalLoop=1;jettySize=auto;html=1;entryX=0.5;entryY=0;entryDx=0;entryDy=0;" parent="IPYmmoNChUyLdm5GVZw2-1" source="waOp5gOY9GueCPtudxNK-2" target="XJrA5cl6L4-JZxvm1Wz_-46" edge="1">
                    &#xa;                    
                    <mxGeometry relative="1" as="geometry"/>
                    &#xa;                
                </mxCell>
                &#xa;                
                <mxCell id="uoXhtfPmWp4suCaWeP9a-21" style="edgeStyle=orthogonalEdgeStyle;rounded=0;orthogonalLoop=1;jettySize=auto;html=1;" parent="IPYmmoNChUyLdm5GVZw2-1" source="waOp5gOY9GueCPtudxNK-2" target="XJrA5cl6L4-JZxvm1Wz_-45" edge="1">
                    &#xa;                    
                    <mxGeometry relative="1" as="geometry"/>
                    &#xa;                
                </mxCell>
                &#xa;                
                <mxCell id="uoXhtfPmWp4suCaWeP9a-22" style="edgeStyle=orthogonalEdgeStyle;rounded=0;orthogonalLoop=1;jettySize=auto;html=1;entryX=0.5;entryY=0;entryDx=0;entryDy=0;" parent="IPYmmoNChUyLdm5GVZw2-1" source="waOp5gOY9GueCPtudxNK-2" target="XJrA5cl6L4-JZxvm1Wz_-43" edge="1">
                    &#xa;                    
                    <mxGeometry relative="1" as="geometry"/>
                    &#xa;                
                </mxCell>
                &#xa;                
                <mxCell id="uoXhtfPmWp4suCaWeP9a-23" style="edgeStyle=orthogonalEdgeStyle;rounded=0;orthogonalLoop=1;jettySize=auto;html=1;" parent="IPYmmoNChUyLdm5GVZw2-1" source="waOp5gOY9GueCPtudxNK-2" target="XJrA5cl6L4-JZxvm1Wz_-44" edge="1">
                    &#xa;                    
                    <mxGeometry relative="1" as="geometry"/>
                    &#xa;                
                </mxCell>
                &#xa;                
                <mxCell id="uoXhtfPmWp4suCaWeP9a-24" style="edgeStyle=orthogonalEdgeStyle;rounded=0;orthogonalLoop=1;jettySize=auto;html=1;" parent="IPYmmoNChUyLdm5GVZw2-1" source="waOp5gOY9GueCPtudxNK-2" target="XJrA5cl6L4-JZxvm1Wz_-41" edge="1">
                    &#xa;                    
                    <mxGeometry relative="1" as="geometry"/>
                    &#xa;                
                </mxCell>
                &#xa;                
                <mxCell id="uoXhtfPmWp4suCaWeP9a-25" style="edgeStyle=orthogonalEdgeStyle;rounded=0;orthogonalLoop=1;jettySize=auto;html=1;" parent="IPYmmoNChUyLdm5GVZw2-1" source="waOp5gOY9GueCPtudxNK-2" target="XJrA5cl6L4-JZxvm1Wz_-42" edge="1">
                    &#xa;                    
                    <mxGeometry relative="1" as="geometry"/>
                    &#xa;                
                </mxCell>
                &#xa;                
                <mxCell id="uoXhtfPmWp4suCaWeP9a-26" style="edgeStyle=orthogonalEdgeStyle;rounded=0;orthogonalLoop=1;jettySize=auto;html=1;entryX=0.5;entryY=0;entryDx=0;entryDy=0;" parent="IPYmmoNChUyLdm5GVZw2-1" source="waOp5gOY9GueCPtudxNK-2" target="XJrA5cl6L4-JZxvm1Wz_-52" edge="1">
                    &#xa;                    
                    <mxGeometry relative="1" as="geometry"/>
                    &#xa;                
                </mxCell>
                &#xa;                
                <mxCell id="waOp5gOY9GueCPtudxNK-2" value="Fixed" style="ellipse;whiteSpace=wrap;html=1;aspect=fixed;" parent="IPYmmoNChUyLdm5GVZw2-1" vertex="1">
                    &#xa;                    
                    <mxGeometry x="610" y="180" width="80" height="80" as="geometry"/>
                    &#xa;                
                </mxCell>
                &#xa;                
                <mxCell id="XJrA5cl6L4-JZxvm1Wz_-73" value="" style="edgeStyle=orthogonalEdgeStyle;rounded=0;orthogonalLoop=1;jettySize=auto;html=1;" parent="IPYmmoNChUyLdm5GVZw2-1" source="uoXhtfPmWp4suCaWeP9a-17" target="waOp5gOY9GueCPtudxNK-4" edge="1">
                    &#xa;                    
                    <mxGeometry relative="1" as="geometry"/>
                    &#xa;                
                </mxCell>
                &#xa;                
                <mxCell id="waOp5gOY9GueCPtudxNK-3" value="Value" style="whiteSpace=wrap;html=1;aspect=fixed;" parent="IPYmmoNChUyLdm5GVZw2-1" vertex="1">
                    &#xa;                    
                    <mxGeometry x="470" y="610" width="80" height="80" as="geometry"/>
                    &#xa;                
                </mxCell>
                &#xa;                
                <mxCell id="uoXhtfPmWp4suCaWeP9a-2" style="edgeStyle=orthogonalEdgeStyle;rounded=0;orthogonalLoop=1;jettySize=auto;html=1;entryX=0.5;entryY=0;entryDx=0;entryDy=0;" parent="IPYmmoNChUyLdm5GVZw2-1" target="uoXhtfPmWp4suCaWeP9a-0" edge="1">
                    &#xa;                    
                    <mxGeometry relative="1" as="geometry">
                        &#xa;                        
                        <mxPoint x="460" y="890" as="sourcePoint"/>
                        &#xa;                    
                    </mxGeometry>
                    &#xa;                
                </mxCell>
                &#xa;                
                <mxCell id="uoXhtfPmWp4suCaWeP9a-3" style="edgeStyle=orthogonalEdgeStyle;rounded=0;orthogonalLoop=1;jettySize=auto;html=1;entryX=0.5;entryY=0;entryDx=0;entryDy=0;" parent="IPYmmoNChUyLdm5GVZw2-1" target="uoXhtfPmWp4suCaWeP9a-1" edge="1">
                    &#xa;                    
                    <mxGeometry relative="1" as="geometry">
                        &#xa;                        
                        <mxPoint x="540" y="890" as="sourcePoint"/>
                        &#xa;                    
                    </mxGeometry>
                    &#xa;                
                </mxCell>
                &#xa;                
                <mxCell id="waOp5gOY9GueCPtudxNK-4" value="Transaction Type" style="ellipse;whiteSpace=wrap;html=1;aspect=fixed;" parent="IPYmmoNChUyLdm5GVZw2-1" vertex="1">
                    &#xa;                    
                    <mxGeometry x="460" y="850" width="80" height="80" as="geometry"/>
                    &#xa;                
                </mxCell>
                &#xa;                
                <mxCell id="XJrA5cl6L4-JZxvm1Wz_-19" style="edgeStyle=orthogonalEdgeStyle;rounded=0;orthogonalLoop=1;jettySize=auto;html=1;entryX=-0.05;entryY=0.888;entryDx=0;entryDy=0;entryPerimeter=0;" parent="IPYmmoNChUyLdm5GVZw2-1" source="XJrA5cl6L4-JZxvm1Wz_-0" target="waOp5gOY9GueCPtudxNK-3" edge="1">
                    &#xa;                    
                    <mxGeometry relative="1" as="geometry">
                        &#xa;                        
                        <mxPoint x="60" y="670" as="targetPoint"/>
                        &#xa;                        
                        <Array as="points">
                            &#xa;                            
                            <mxPoint x="60" y="681"/>
                            &#xa;                        
                        </Array>
                        &#xa;                    
                    </mxGeometry>
                    &#xa;                
                </mxCell>
                &#xa;                
                <mxCell id="XJrA5cl6L4-JZxvm1Wz_-0" value="Cash" style="rounded=0;whiteSpace=wrap;html=1;" parent="IPYmmoNChUyLdm5GVZw2-1" vertex="1">
                    &#xa;                    
                    <mxGeometry x="30" y="280" width="60" height="40" as="geometry"/>
                    &#xa;                
                </mxCell>
                &#xa;                
                <mxCell id="XJrA5cl6L4-JZxvm1Wz_-14" value="" style="edgeStyle=orthogonalEdgeStyle;rounded=0;orthogonalLoop=1;jettySize=auto;html=1;" parent="IPYmmoNChUyLdm5GVZw2-1" source="XJrA5cl6L4-JZxvm1Wz_-1" edge="1">
                    &#xa;                    
                    <mxGeometry relative="1" as="geometry">
                        &#xa;                        
                        <mxPoint x="135" y="600" as="targetPoint"/>
                        &#xa;                    
                    </mxGeometry>
                    &#xa;                
                </mxCell>
                &#xa;                
                <mxCell id="XJrA5cl6L4-JZxvm1Wz_-1" value="Cash Equivalent" style="rounded=0;whiteSpace=wrap;html=1;fillColor=#60a917;strokeColor=#2D7600;fontColor=#ffffff;" parent="IPYmmoNChUyLdm5GVZw2-1" vertex="1">
                    &#xa;                    
                    <mxGeometry x="100" y="280" width="70" height="40" as="geometry"/>
                    &#xa;                
                </mxCell>
                &#xa;                
                <mxCell id="XJrA5cl6L4-JZxvm1Wz_-18" value="" style="edgeStyle=orthogonalEdgeStyle;rounded=0;orthogonalLoop=1;jettySize=auto;html=1;" parent="IPYmmoNChUyLdm5GVZw2-1" source="XJrA5cl6L4-JZxvm1Wz_-2" target="XJrA5cl6L4-JZxvm1Wz_-16" edge="1">
                    &#xa;                    
                    <mxGeometry relative="1" as="geometry"/>
                    &#xa;                
                </mxCell>
                &#xa;                
                <mxCell id="XJrA5cl6L4-JZxvm1Wz_-2" value="Stock or Inventory" style="rounded=0;whiteSpace=wrap;html=1;fillColor=#1ba1e2;strokeColor=#006EAF;fontColor=#ffffff;" parent="IPYmmoNChUyLdm5GVZw2-1" vertex="1">
                    &#xa;                    
                    <mxGeometry x="425" y="280" width="70" height="40" as="geometry"/>
                    &#xa;                
                </mxCell>
                &#xa;                
                <mxCell id="XJrA5cl6L4-JZxvm1Wz_-3" value="Accounts Receivalbe" style="rounded=0;whiteSpace=wrap;html=1;" parent="IPYmmoNChUyLdm5GVZw2-1" vertex="1">
                    &#xa;                    
                    <mxGeometry x="260" y="280" width="70" height="40" as="geometry"/>
                    &#xa;                
                </mxCell>
                &#xa;                
                <mxCell id="XJrA5cl6L4-JZxvm1Wz_-31" style="edgeStyle=orthogonalEdgeStyle;rounded=0;orthogonalLoop=1;jettySize=auto;html=1;" parent="IPYmmoNChUyLdm5GVZw2-1" source="XJrA5cl6L4-JZxvm1Wz_-4" edge="1">
                    &#xa;                    
                    <mxGeometry relative="1" as="geometry">
                        &#xa;                        
                        <mxPoint x="380" y="680" as="targetPoint"/>
                        &#xa;                        
                        <Array as="points">
                            &#xa;                            
                            <mxPoint x="380" y="658"/>
                            &#xa;                        
                        </Array>
                        &#xa;                    
                    </mxGeometry>
                    &#xa;                
                </mxCell>
                &#xa;                
                <mxCell id="XJrA5cl6L4-JZxvm1Wz_-4" value="Marketable Securities" style="rounded=0;whiteSpace=wrap;html=1;" parent="IPYmmoNChUyLdm5GVZw2-1" vertex="1">
                    &#xa;                    
                    <mxGeometry x="345" y="280" width="70" height="40" as="geometry"/>
                    &#xa;                
                </mxCell>
                &#xa;                
                <mxCell id="XJrA5cl6L4-JZxvm1Wz_-29" style="edgeStyle=orthogonalEdgeStyle;rounded=0;orthogonalLoop=1;jettySize=auto;html=1;" parent="IPYmmoNChUyLdm5GVZw2-1" source="XJrA5cl6L4-JZxvm1Wz_-5" target="waOp5gOY9GueCPtudxNK-3" edge="1">
                    &#xa;                    
                    <mxGeometry relative="1" as="geometry"/>
                    &#xa;                
                </mxCell>
                &#xa;                
                <mxCell id="XJrA5cl6L4-JZxvm1Wz_-5" value="Prepaid Expenses" style="rounded=0;whiteSpace=wrap;html=1;" parent="IPYmmoNChUyLdm5GVZw2-1" vertex="1">
                    &#xa;                    
                    <mxGeometry x="510" y="280" width="70" height="40" as="geometry"/>
                    &#xa;                
                </mxCell>
                &#xa;                
                <mxCell id="XJrA5cl6L4-JZxvm1Wz_-6" value="Other Liquid Assets" style="rounded=0;whiteSpace=wrap;html=1;" parent="IPYmmoNChUyLdm5GVZw2-1" vertex="1">
                    &#xa;                    
                    <mxGeometry x="180" y="280" width="70" height="40" as="geometry"/>
                    &#xa;                
                </mxCell>
                &#xa;                
                <mxCell id="XJrA5cl6L4-JZxvm1Wz_-7" value="Bank Balances" style="rounded=0;whiteSpace=wrap;html=1;fillColor=#60a917;strokeColor=#2D7600;fontColor=#ffffff;" parent="IPYmmoNChUyLdm5GVZw2-1" vertex="1">
                    &#xa;                    
                    <mxGeometry x="100" y="340" width="70" height="40" as="geometry"/>
                    &#xa;                
                </mxCell>
                &#xa;                
                <mxCell id="XJrA5cl6L4-JZxvm1Wz_-8" value="Bank OverDraft&lt;br&gt;" style="rounded=0;whiteSpace=wrap;html=1;fillColor=#60a917;strokeColor=#2D7600;fontColor=#ffffff;" parent="IPYmmoNChUyLdm5GVZw2-1" vertex="1">
                    &#xa;                    
                    <mxGeometry x="100" y="390" width="70" height="40" as="geometry"/>
                    &#xa;                
                </mxCell>
                &#xa;                
                <mxCell id="XJrA5cl6L4-JZxvm1Wz_-9" value="Cheques" style="rounded=0;whiteSpace=wrap;html=1;fillColor=#60a917;strokeColor=#2D7600;fontColor=#ffffff;" parent="IPYmmoNChUyLdm5GVZw2-1" vertex="1">
                    &#xa;                    
                    <mxGeometry x="100" y="440" width="70" height="40" as="geometry"/>
                    &#xa;                
                </mxCell>
                &#xa;                
                <mxCell id="XJrA5cl6L4-JZxvm1Wz_-10" value="Drafts on Hand" style="rounded=0;whiteSpace=wrap;html=1;fillColor=#60a917;strokeColor=#2D7600;fontColor=#ffffff;" parent="IPYmmoNChUyLdm5GVZw2-1" vertex="1">
                    &#xa;                    
                    <mxGeometry x="100" y="490" width="70" height="40" as="geometry"/>
                    &#xa;                
                </mxCell>
                &#xa;                
                <mxCell id="XJrA5cl6L4-JZxvm1Wz_-13" value="" style="edgeStyle=orthogonalEdgeStyle;rounded=0;orthogonalLoop=1;jettySize=auto;html=1;" parent="IPYmmoNChUyLdm5GVZw2-1" source="XJrA5cl6L4-JZxvm1Wz_-11" target="XJrA5cl6L4-JZxvm1Wz_-12" edge="1">
                    &#xa;                    
                    <mxGeometry relative="1" as="geometry"/>
                    &#xa;                
                </mxCell>
                &#xa;                
                <mxCell id="XJrA5cl6L4-JZxvm1Wz_-11" value="Demand Deposit" style="rounded=0;whiteSpace=wrap;html=1;fillColor=#60a917;strokeColor=#2D7600;fontColor=#ffffff;" parent="IPYmmoNChUyLdm5GVZw2-1" vertex="1">
                    &#xa;                    
                    <mxGeometry x="100" y="540" width="70" height="40" as="geometry"/>
                    &#xa;                
                </mxCell>
                &#xa;                
                <mxCell id="XJrA5cl6L4-JZxvm1Wz_-34" value="" style="edgeStyle=orthogonalEdgeStyle;rounded=0;orthogonalLoop=1;jettySize=auto;html=1;" parent="IPYmmoNChUyLdm5GVZw2-1" source="XJrA5cl6L4-JZxvm1Wz_-12" edge="1">
                    &#xa;                    
                    <mxGeometry relative="1" as="geometry">
                        &#xa;                        
                        <mxPoint x="135" y="670" as="targetPoint"/>
                        &#xa;                    
                    </mxGeometry>
                    &#xa;                
                </mxCell>
                &#xa;                
                <mxCell id="XJrA5cl6L4-JZxvm1Wz_-12" value="Short term investments" style="rounded=0;whiteSpace=wrap;html=1;fillColor=#60a917;strokeColor=#2D7600;fontColor=#ffffff;" parent="IPYmmoNChUyLdm5GVZw2-1" vertex="1">
                    &#xa;                    
                    <mxGeometry x="100" y="600" width="70" height="40" as="geometry"/>
                    &#xa;                
                </mxCell>
                &#xa;                
                <mxCell id="XJrA5cl6L4-JZxvm1Wz_-30" style="edgeStyle=orthogonalEdgeStyle;rounded=0;orthogonalLoop=1;jettySize=auto;html=1;exitX=0.5;exitY=1;exitDx=0;exitDy=0;" parent="IPYmmoNChUyLdm5GVZw2-1" source="XJrA5cl6L4-JZxvm1Wz_-15" edge="1">
                    &#xa;                    
                    <mxGeometry relative="1" as="geometry">
                        &#xa;                        
                        <mxPoint x="510" y="620" as="targetPoint"/>
                        &#xa;                    
                    </mxGeometry>
                    &#xa;                
                </mxCell>
                &#xa;                
                <mxCell id="XJrA5cl6L4-JZxvm1Wz_-15" value="Finished Goods" style="rounded=0;whiteSpace=wrap;html=1;fillColor=#1ba1e2;strokeColor=#006EAF;fontColor=#ffffff;" parent="IPYmmoNChUyLdm5GVZw2-1" vertex="1">
                    &#xa;                    
                    <mxGeometry x="425" y="340" width="70" height="40" as="geometry"/>
                    &#xa;                
                </mxCell>
                &#xa;                
                <mxCell id="XJrA5cl6L4-JZxvm1Wz_-16" value="Work in Progress" style="rounded=0;whiteSpace=wrap;html=1;fillColor=#1ba1e2;strokeColor=#006EAF;fontColor=#ffffff;" parent="IPYmmoNChUyLdm5GVZw2-1" vertex="1">
                    &#xa;                    
                    <mxGeometry x="425" y="390" width="70" height="40" as="geometry"/>
                    &#xa;                
                </mxCell>
                &#xa;                
                <mxCell id="XJrA5cl6L4-JZxvm1Wz_-17" value="Raw material" style="rounded=0;whiteSpace=wrap;html=1;fillColor=#1ba1e2;strokeColor=#006EAF;fontColor=#ffffff;" parent="IPYmmoNChUyLdm5GVZw2-1" vertex="1">
                    &#xa;                    
                    <mxGeometry x="425" y="440" width="70" height="40" as="geometry"/>
                    &#xa;                
                </mxCell>
                &#xa;                
                <mxCell id="XJrA5cl6L4-JZxvm1Wz_-38" value="" style="edgeStyle=orthogonalEdgeStyle;rounded=0;orthogonalLoop=1;jettySize=auto;html=1;" parent="IPYmmoNChUyLdm5GVZw2-1" source="XJrA5cl6L4-JZxvm1Wz_-35" edge="1">
                    &#xa;                    
                    <mxGeometry relative="1" as="geometry">
                        &#xa;                        
                        <mxPoint x="295" y="680" as="targetPoint"/>
                        &#xa;                    
                    </mxGeometry>
                    &#xa;                
                </mxCell>
                &#xa;                
                <mxCell id="XJrA5cl6L4-JZxvm1Wz_-35" value="&lt;font color=&quot;#4d9900&quot;&gt;Link to a user&lt;/font&gt;" style="shape=umlActor;verticalLabelPosition=bottom;labelBackgroundColor=#ffffff;verticalAlign=top;html=1;outlineConnect=0;" parent="IPYmmoNChUyLdm5GVZw2-1" vertex="1">
                    &#xa;                    
                    <mxGeometry x="280" y="420" width="30" height="60" as="geometry"/>
                    &#xa;                
                </mxCell>
                &#xa;                
                <mxCell id="XJrA5cl6L4-JZxvm1Wz_-36" style="edgeStyle=orthogonalEdgeStyle;rounded=0;orthogonalLoop=1;jettySize=auto;html=1;" parent="IPYmmoNChUyLdm5GVZw2-1" source="XJrA5cl6L4-JZxvm1Wz_-3" target="XJrA5cl6L4-JZxvm1Wz_-35" edge="1">
                    &#xa;                    
                    <mxGeometry relative="1" as="geometry">
                        &#xa;                        
                        <mxPoint x="295" y="680" as="targetPoint"/>
                        &#xa;                        
                        <mxPoint x="295" y="320" as="sourcePoint"/>
                        &#xa;                    
                    </mxGeometry>
                    &#xa;                
                </mxCell>
                &#xa;                
                <mxCell id="XJrA5cl6L4-JZxvm1Wz_-59" value="" style="edgeStyle=orthogonalEdgeStyle;rounded=0;orthogonalLoop=1;jettySize=auto;html=1;" parent="IPYmmoNChUyLdm5GVZw2-1" source="XJrA5cl6L4-JZxvm1Wz_-40" edge="1">
                    &#xa;                    
                    <mxGeometry relative="1" as="geometry">
                        &#xa;                        
                        <mxPoint x="745" y="640" as="targetPoint"/>
                        &#xa;                    
                    </mxGeometry>
                    &#xa;                
                </mxCell>
                &#xa;                
                <mxCell id="XJrA5cl6L4-JZxvm1Wz_-40" value="Computer Equipment" style="rounded=0;whiteSpace=wrap;html=1;fillColor=#6a00ff;strokeColor=#3700CC;fontColor=#ffffff;" parent="IPYmmoNChUyLdm5GVZw2-1" vertex="1">
                    &#xa;                    
                    <mxGeometry x="710" y="290" width="70" height="40" as="geometry"/>
                    &#xa;                
                </mxCell>
                &#xa;                
                <mxCell id="XJrA5cl6L4-JZxvm1Wz_-58" value="Desktop Computers" style="rounded=0;whiteSpace=wrap;html=1;fillColor=#6a00ff;strokeColor=#3700CC;fontColor=#ffffff;" parent="IPYmmoNChUyLdm5GVZw2-1" vertex="1">
                    &#xa;                    
                    <mxGeometry x="710" y="410" width="70" height="40" as="geometry"/>
                    &#xa;                
                </mxCell>
                &#xa;                
                <mxCell id="XJrA5cl6L4-JZxvm1Wz_-69" style="edgeStyle=orthogonalEdgeStyle;rounded=0;orthogonalLoop=1;jettySize=auto;html=1;" parent="IPYmmoNChUyLdm5GVZw2-1" source="XJrA5cl6L4-JZxvm1Wz_-41" edge="1">
                    &#xa;                    
                    <mxGeometry relative="1" as="geometry">
                        &#xa;                        
                        <mxPoint x="1295" y="640" as="targetPoint"/>
                        &#xa;                    
                    </mxGeometry>
                    &#xa;                
                </mxCell>
                &#xa;                
                <mxCell id="XJrA5cl6L4-JZxvm1Wz_-41" value="Computer Software" style="rounded=0;whiteSpace=wrap;html=1;" parent="IPYmmoNChUyLdm5GVZw2-1" vertex="1">
                    &#xa;                    
                    <mxGeometry x="1260" y="290" width="70" height="40" as="geometry"/>
                    &#xa;                
                </mxCell>
                &#xa;                
                <mxCell id="XJrA5cl6L4-JZxvm1Wz_-70" style="edgeStyle=orthogonalEdgeStyle;rounded=0;orthogonalLoop=1;jettySize=auto;html=1;" parent="IPYmmoNChUyLdm5GVZw2-1" source="XJrA5cl6L4-JZxvm1Wz_-42" edge="1">
                    &#xa;                    
                    <mxGeometry relative="1" as="geometry">
                        &#xa;                        
                        <mxPoint x="1385" y="640" as="targetPoint"/>
                        &#xa;                    
                    </mxGeometry>
                    &#xa;                
                </mxCell>
                &#xa;                
                <mxCell id="XJrA5cl6L4-JZxvm1Wz_-42" value="Construction in progress" style="rounded=0;whiteSpace=wrap;html=1;" parent="IPYmmoNChUyLdm5GVZw2-1" vertex="1">
                    &#xa;                    
                    <mxGeometry x="1350" y="290" width="70" height="40" as="geometry"/>
                    &#xa;                
                </mxCell>
                &#xa;                
                <mxCell id="XJrA5cl6L4-JZxvm1Wz_-64" style="edgeStyle=orthogonalEdgeStyle;rounded=0;orthogonalLoop=1;jettySize=auto;html=1;" parent="IPYmmoNChUyLdm5GVZw2-1" source="XJrA5cl6L4-JZxvm1Wz_-43" edge="1">
                    &#xa;                    
                    <mxGeometry relative="1" as="geometry">
                        &#xa;                        
                        <mxPoint x="1115" y="640" as="targetPoint"/>
                        &#xa;                    
                    </mxGeometry>
                    &#xa;                
                </mxCell>
                &#xa;                
                <mxCell id="XJrA5cl6L4-JZxvm1Wz_-43" value="Furniture and fixtures" style="rounded=0;whiteSpace=wrap;html=1;" parent="IPYmmoNChUyLdm5GVZw2-1" vertex="1">
                    &#xa;                    
                    <mxGeometry x="1080" y="290" width="70" height="40" as="geometry"/>
                    &#xa;                
                </mxCell>
                &#xa;                
                <mxCell id="XJrA5cl6L4-JZxvm1Wz_-67" value="" style="edgeStyle=orthogonalEdgeStyle;rounded=0;orthogonalLoop=1;jettySize=auto;html=1;" parent="IPYmmoNChUyLdm5GVZw2-1" source="XJrA5cl6L4-JZxvm1Wz_-44" edge="1">
                    &#xa;                    
                    <mxGeometry relative="1" as="geometry">
                        &#xa;                        
                        <mxPoint x="1200" y="640" as="targetPoint"/>
                        &#xa;                    
                    </mxGeometry>
                    &#xa;                
                </mxCell>
                &#xa;                
                <mxCell id="XJrA5cl6L4-JZxvm1Wz_-44" value="Intangible assets" style="rounded=0;whiteSpace=wrap;html=1;fillColor=#fa6800;strokeColor=#C73500;fontColor=#ffffff;" parent="IPYmmoNChUyLdm5GVZw2-1" vertex="1">
                    &#xa;                    
                    <mxGeometry x="1170" y="290" width="70" height="40" as="geometry"/>
                    &#xa;                
                </mxCell>
                &#xa;                
                <mxCell id="XJrA5cl6L4-JZxvm1Wz_-66" value="Radio Licenses" style="rounded=0;whiteSpace=wrap;html=1;fillColor=#fa6800;strokeColor=#C73500;fontColor=#ffffff;" parent="IPYmmoNChUyLdm5GVZw2-1" vertex="1">
                    &#xa;                    
                    <mxGeometry x="1170" y="410" width="70" height="40" as="geometry"/>
                    &#xa;                
                </mxCell>
                &#xa;                
                <mxCell id="XJrA5cl6L4-JZxvm1Wz_-63" style="edgeStyle=orthogonalEdgeStyle;rounded=0;orthogonalLoop=1;jettySize=auto;html=1;" parent="IPYmmoNChUyLdm5GVZw2-1" source="XJrA5cl6L4-JZxvm1Wz_-45" edge="1">
                    &#xa;                    
                    <mxGeometry relative="1" as="geometry">
                        &#xa;                        
                        <mxPoint x="1025" y="640" as="targetPoint"/>
                        &#xa;                    
                    </mxGeometry>
                    &#xa;                
                </mxCell>
                &#xa;                
                <mxCell id="XJrA5cl6L4-JZxvm1Wz_-45" value="Land" style="rounded=0;whiteSpace=wrap;html=1;" parent="IPYmmoNChUyLdm5GVZw2-1" vertex="1">
                    &#xa;                    
                    <mxGeometry x="990" y="290" width="70" height="40" as="geometry"/>
                    &#xa;                
                </mxCell>
                &#xa;                
                <mxCell id="XJrA5cl6L4-JZxvm1Wz_-62" style="edgeStyle=orthogonalEdgeStyle;rounded=0;orthogonalLoop=1;jettySize=auto;html=1;" parent="IPYmmoNChUyLdm5GVZw2-1" source="XJrA5cl6L4-JZxvm1Wz_-46" edge="1">
                    &#xa;                    
                    <mxGeometry relative="1" as="geometry">
                        &#xa;                        
                        <mxPoint x="930" y="640" as="targetPoint"/>
                        &#xa;                    
                    </mxGeometry>
                    &#xa;                
                </mxCell>
                &#xa;                
                <mxCell id="XJrA5cl6L4-JZxvm1Wz_-46" value="leasehold improvements" style="rounded=0;whiteSpace=wrap;html=1;" parent="IPYmmoNChUyLdm5GVZw2-1" vertex="1">
                    &#xa;                    
                    <mxGeometry x="890" y="290" width="80" height="40" as="geometry"/>
                    &#xa;                
                </mxCell>
                &#xa;                
                <mxCell id="XJrA5cl6L4-JZxvm1Wz_-61" style="edgeStyle=orthogonalEdgeStyle;rounded=0;orthogonalLoop=1;jettySize=auto;html=1;" parent="IPYmmoNChUyLdm5GVZw2-1" source="XJrA5cl6L4-JZxvm1Wz_-47" edge="1">
                    &#xa;                    
                    <mxGeometry relative="1" as="geometry">
                        &#xa;                        
                        <mxPoint x="845" y="640" as="targetPoint"/>
                        &#xa;                    
                    </mxGeometry>
                    &#xa;                
                </mxCell>
                &#xa;                
                <mxCell id="XJrA5cl6L4-JZxvm1Wz_-47" value="Machinery" style="rounded=0;whiteSpace=wrap;html=1;" parent="IPYmmoNChUyLdm5GVZw2-1" vertex="1">
                    &#xa;                    
                    <mxGeometry x="810" y="290" width="70" height="40" as="geometry"/>
                    &#xa;                
                </mxCell>
                &#xa;                
                <mxCell id="XJrA5cl6L4-JZxvm1Wz_-56" style="edgeStyle=orthogonalEdgeStyle;rounded=0;orthogonalLoop=1;jettySize=auto;html=1;" parent="IPYmmoNChUyLdm5GVZw2-1" source="XJrA5cl6L4-JZxvm1Wz_-48" edge="1">
                    &#xa;                    
                    <mxGeometry relative="1" as="geometry">
                        &#xa;                        
                        <mxPoint x="650" y="640" as="targetPoint"/>
                        &#xa;                    
                    </mxGeometry>
                    &#xa;                
                </mxCell>
                &#xa;                
                <mxCell id="XJrA5cl6L4-JZxvm1Wz_-48" value="Office Equipment" style="rounded=0;whiteSpace=wrap;html=1;" parent="IPYmmoNChUyLdm5GVZw2-1" vertex="1">
                    &#xa;                    
                    <mxGeometry x="615" y="290" width="70" height="40" as="geometry"/>
                    &#xa;                
                </mxCell>
                &#xa;                
                <mxCell id="XJrA5cl6L4-JZxvm1Wz_-71" style="edgeStyle=orthogonalEdgeStyle;rounded=0;orthogonalLoop=1;jettySize=auto;html=1;" parent="IPYmmoNChUyLdm5GVZw2-1" source="XJrA5cl6L4-JZxvm1Wz_-52" edge="1">
                    &#xa;                    
                    <mxGeometry relative="1" as="geometry">
                        &#xa;                        
                        <mxPoint x="1475" y="640" as="targetPoint"/>
                        &#xa;                    
                    </mxGeometry>
                    &#xa;                
                </mxCell>
                &#xa;                
                <mxCell id="XJrA5cl6L4-JZxvm1Wz_-52" value="Vehicles" style="rounded=0;whiteSpace=wrap;html=1;" parent="IPYmmoNChUyLdm5GVZw2-1" vertex="1">
                    &#xa;                    
                    <mxGeometry x="1440" y="290" width="70" height="40" as="geometry"/>
                    &#xa;                
                </mxCell>
                &#xa;                
                <mxCell id="XJrA5cl6L4-JZxvm1Wz_-57" value="Servers" style="rounded=0;whiteSpace=wrap;html=1;fillColor=#6a00ff;strokeColor=#3700CC;fontColor=#ffffff;" parent="IPYmmoNChUyLdm5GVZw2-1" vertex="1">
                    &#xa;                    
                    <mxGeometry x="710" y="350" width="70" height="40" as="geometry"/>
                    &#xa;                
                </mxCell>
                &#xa;                
                <mxCell id="XJrA5cl6L4-JZxvm1Wz_-60" value="Laptops" style="rounded=0;whiteSpace=wrap;html=1;fillColor=#6a00ff;strokeColor=#3700CC;fontColor=#ffffff;" parent="IPYmmoNChUyLdm5GVZw2-1" vertex="1">
                    &#xa;                    
                    <mxGeometry x="710" y="470" width="70" height="40" as="geometry"/>
                    &#xa;                
                </mxCell>
                &#xa;                
                <mxCell id="XJrA5cl6L4-JZxvm1Wz_-65" value="Patents" style="rounded=0;whiteSpace=wrap;html=1;fillColor=#fa6800;strokeColor=#C73500;fontColor=#ffffff;" parent="IPYmmoNChUyLdm5GVZw2-1" vertex="1">
                    &#xa;                    
                    <mxGeometry x="1170" y="360" width="70" height="40" as="geometry"/>
                    &#xa;                
                </mxCell>
                &#xa;                
                <mxCell id="XJrA5cl6L4-JZxvm1Wz_-68" value="Copyrights" style="rounded=0;whiteSpace=wrap;html=1;fillColor=#fa6800;strokeColor=#C73500;fontColor=#ffffff;" parent="IPYmmoNChUyLdm5GVZw2-1" vertex="1">
                    &#xa;                    
                    <mxGeometry x="1170" y="470" width="70" height="40" as="geometry"/>
                    &#xa;                
                </mxCell>
                &#xa;                
                <mxCell id="XJrA5cl6L4-JZxvm1Wz_-72" value="" style="endArrow=classic;html=1;" parent="IPYmmoNChUyLdm5GVZw2-1" target="waOp5gOY9GueCPtudxNK-3" edge="1">
                    &#xa;                    
                    <mxGeometry width="50" height="50" relative="1" as="geometry">
                        &#xa;                        
                        <mxPoint x="1480" y="649" as="sourcePoint"/>
                        &#xa;                        
                        <mxPoint x="1430" y="490" as="targetPoint"/>
                        &#xa;                    
                    </mxGeometry>
                    &#xa;                
                </mxCell>
                &#xa;                
                <mxCell id="uoXhtfPmWp4suCaWeP9a-0" value="Cash" style="rounded=0;whiteSpace=wrap;html=1;" parent="IPYmmoNChUyLdm5GVZw2-1" vertex="1">
                    &#xa;                    
                    <mxGeometry x="330" y="970" width="120" height="60" as="geometry"/>
                    &#xa;                
                </mxCell>
                &#xa;                
                <mxCell id="uoXhtfPmWp4suCaWeP9a-9" style="edgeStyle=orthogonalEdgeStyle;rounded=0;orthogonalLoop=1;jettySize=auto;html=1;entryX=0.5;entryY=0;entryDx=0;entryDy=0;" parent="IPYmmoNChUyLdm5GVZw2-1" source="uoXhtfPmWp4suCaWeP9a-1" target="uoXhtfPmWp4suCaWeP9a-4" edge="1">
                    &#xa;                    
                    <mxGeometry relative="1" as="geometry"/>
                    &#xa;                
                </mxCell>
                &#xa;                
                <mxCell id="uoXhtfPmWp4suCaWeP9a-10" style="edgeStyle=orthogonalEdgeStyle;rounded=0;orthogonalLoop=1;jettySize=auto;html=1;entryX=0.5;entryY=0;entryDx=0;entryDy=0;" parent="IPYmmoNChUyLdm5GVZw2-1" source="uoXhtfPmWp4suCaWeP9a-1" target="uoXhtfPmWp4suCaWeP9a-5" edge="1">
                    &#xa;                    
                    <mxGeometry relative="1" as="geometry">
                        &#xa;                        
                        <Array as="points">
                            &#xa;                            
                            <mxPoint x="620" y="1050"/>
                            &#xa;                            
                            <mxPoint x="720" y="1050"/>
                            &#xa;                        
                        </Array>
                        &#xa;                    
                    </mxGeometry>
                    &#xa;                
                </mxCell>
                &#xa;                
                <mxCell id="uoXhtfPmWp4suCaWeP9a-12" value="" style="edgeStyle=orthogonalEdgeStyle;rounded=0;orthogonalLoop=1;jettySize=auto;html=1;entryX=0.5;entryY=0;entryDx=0;entryDy=0;" parent="IPYmmoNChUyLdm5GVZw2-1" source="uoXhtfPmWp4suCaWeP9a-1" target="uoXhtfPmWp4suCaWeP9a-6" edge="1">
                    &#xa;                    
                    <mxGeometry relative="1" as="geometry">
                        &#xa;                        
                        <mxPoint x="970" y="1010" as="targetPoint"/>
                        &#xa;                    
                    </mxGeometry>
                    &#xa;                
                </mxCell>
                &#xa;                
                <mxCell id="uoXhtfPmWp4suCaWeP9a-1" value="Credit" style="rounded=0;whiteSpace=wrap;html=1;" parent="IPYmmoNChUyLdm5GVZw2-1" vertex="1">
                    &#xa;                    
                    <mxGeometry x="560" y="970" width="120" height="60" as="geometry"/>
                    &#xa;                
                </mxCell>
                &#xa;                
                <mxCell id="uoXhtfPmWp4suCaWeP9a-4" value="Deposit" style="rounded=0;whiteSpace=wrap;html=1;" parent="IPYmmoNChUyLdm5GVZw2-1" vertex="1">
                    &#xa;                    
                    <mxGeometry x="510" y="1070" width="120" height="30" as="geometry"/>
                    &#xa;                
                </mxCell>
                &#xa;                
                <mxCell id="uoXhtfPmWp4suCaWeP9a-5" value="Loan Amount" style="rounded=0;whiteSpace=wrap;html=1;" parent="IPYmmoNChUyLdm5GVZw2-1" vertex="1">
                    &#xa;                    
                    <mxGeometry x="660" y="1070" width="120" height="30" as="geometry"/>
                    &#xa;                
                </mxCell>
                &#xa;                
                <mxCell id="uoXhtfPmWp4suCaWeP9a-13" style="edgeStyle=orthogonalEdgeStyle;rounded=0;orthogonalLoop=1;jettySize=auto;html=1;entryX=0.5;entryY=0;entryDx=0;entryDy=0;" parent="IPYmmoNChUyLdm5GVZw2-1" source="uoXhtfPmWp4suCaWeP9a-6" target="uoXhtfPmWp4suCaWeP9a-7" edge="1">
                    &#xa;                    
                    <mxGeometry relative="1" as="geometry"/>
                    &#xa;                
                </mxCell>
                &#xa;                
                <mxCell id="uoXhtfPmWp4suCaWeP9a-16" style="edgeStyle=orthogonalEdgeStyle;rounded=0;orthogonalLoop=1;jettySize=auto;html=1;entryX=0.5;entryY=0;entryDx=0;entryDy=0;" parent="IPYmmoNChUyLdm5GVZw2-1" source="uoXhtfPmWp4suCaWeP9a-6" target="uoXhtfPmWp4suCaWeP9a-8" edge="1">
                    &#xa;                    
                    <mxGeometry relative="1" as="geometry"/>
                    &#xa;                
                </mxCell>
                &#xa;                
                <mxCell id="uoXhtfPmWp4suCaWeP9a-6" value="Interest" style="rounded=0;whiteSpace=wrap;html=1;" parent="IPYmmoNChUyLdm5GVZw2-1" vertex="1">
                    &#xa;                    
                    <mxGeometry x="810" y="1070" width="120" height="30" as="geometry"/>
                    &#xa;                
                </mxCell>
                &#xa;                
                <mxCell id="uoXhtfPmWp4suCaWeP9a-7" value="Fixed" style="rounded=0;whiteSpace=wrap;html=1;" parent="IPYmmoNChUyLdm5GVZw2-1" vertex="1">
                    &#xa;                    
                    <mxGeometry x="780" y="1130" width="80" height="20" as="geometry"/>
                    &#xa;                
                </mxCell>
                &#xa;                
                <mxCell id="uoXhtfPmWp4suCaWeP9a-8" value="Variable" style="rounded=0;whiteSpace=wrap;html=1;" parent="IPYmmoNChUyLdm5GVZw2-1" vertex="1">
                    &#xa;                    
                    <mxGeometry x="870" y="1130" width="80" height="20" as="geometry"/>
                    &#xa;                
                </mxCell>
                &#xa;                
                <mxCell id="uoXhtfPmWp4suCaWeP9a-17" value="Appreciation/Depreciation" style="rounded=0;whiteSpace=wrap;html=1;" parent="IPYmmoNChUyLdm5GVZw2-1" vertex="1">
                    &#xa;                    
                    <mxGeometry x="425" y="730" width="160" height="60" as="geometry"/>
                    &#xa;                
                </mxCell>
                &#xa;                
                <mxCell id="uoXhtfPmWp4suCaWeP9a-18" value="" style="edgeStyle=orthogonalEdgeStyle;rounded=0;orthogonalLoop=1;jettySize=auto;html=1;" parent="IPYmmoNChUyLdm5GVZw2-1" source="waOp5gOY9GueCPtudxNK-3" target="uoXhtfPmWp4suCaWeP9a-17" edge="1">
                    &#xa;                    
                    <mxGeometry relative="1" as="geometry">
                        &#xa;                        
                        <mxPoint x="510" y="690" as="sourcePoint"/>
                        &#xa;                        
                        <mxPoint x="500" y="850" as="targetPoint"/>
                        &#xa;                    
                    </mxGeometry>
                    &#xa;                
                </mxCell>
                &#xa;            
            </root>
            &#xa;        
        </mxGraphModel>
        &#xa;    
    </diagram>
    <diagram id="XxAQkDI5Bk1g_GwmfnUV" name="Book Entries">
        &#xa;        &#xa;        &#xa;        &#xa;        &#xa;        &#xa;        &#xa;        
        <mxGraphModel dx="972" dy="806" grid="1" gridSize="10" guides="1" tooltips="1" connect="1" arrows="1" fold="1" page="1" pageScale="1" pageWidth="3300" pageHeight="4681" math="0" shadow="0">
            &#xa;            &#xa;            &#xa;            &#xa;            &#xa;            &#xa;            &#xa;            
            <root>
                &#xa;                &#xa;                &#xa;                &#xa;                &#xa;                &#xa;                &#xa;                
                <mxCell id="bhLoS5Q-9nMrikbAch8--0"/>
                &#xa;                &#xa;                &#xa;                &#xa;                &#xa;                &#xa;                &#xa;                
                <mxCell id="bhLoS5Q-9nMrikbAch8--1" parent="bhLoS5Q-9nMrikbAch8--0"/>
                &#xa;                &#xa;                &#xa;                &#xa;                &#xa;                &#xa;                &#xa;                
                <mxCell id="52Dz4_7XV_ChBpZ4pIKk-0" value="Transaction Type" style="ellipse;whiteSpace=wrap;html=1;aspect=fixed;fillColor=#60a917;strokeColor=#2D7600;fontColor=#ffffff;" parent="bhLoS5Q-9nMrikbAch8--1" vertex="1">
                    &#xa;                    &#xa;                    &#xa;                    &#xa;                    &#xa;                    &#xa;                    &#xa;                    
                    <mxGeometry x="230" y="40" width="80" height="80" as="geometry"/>
                    &#xa;                    &#xa;                    &#xa;                    &#xa;                &#xa;                &#xa;                &#xa;                
                </mxCell>
                &#xa;                &#xa;                &#xa;                &#xa;                &#xa;                &#xa;                &#xa;                
                <mxCell id="52Dz4_7XV_ChBpZ4pIKk-1" style="edgeStyle=orthogonalEdgeStyle;rounded=0;orthogonalLoop=1;jettySize=auto;html=1;entryX=0.5;entryY=0;entryDx=0;entryDy=0;fillColor=#60a917;strokeColor=#2D7600;" parent="bhLoS5Q-9nMrikbAch8--1" target="52Dz4_7XV_ChBpZ4pIKk-2" edge="1">
                    &#xa;                    &#xa;                    &#xa;                    &#xa;                    &#xa;                    &#xa;                    &#xa;                    
                    <mxGeometry relative="1" as="geometry">
                        &#xa;                        &#xa;                        &#xa;                        &#xa;                        &#xa;                        &#xa;                        &#xa;                        
                        <mxPoint x="230" y="80" as="sourcePoint"/>
                        &#xa;                        &#xa;                        &#xa;                        &#xa;                    &#xa;                    &#xa;                    &#xa;                    
                    </mxGeometry>
                    &#xa;                    &#xa;                    &#xa;                    &#xa;                &#xa;                &#xa;                &#xa;                
                </mxCell>
                &#xa;                &#xa;                &#xa;                &#xa;                &#xa;                &#xa;                &#xa;                
                <mxCell id="52Dz4_7XV_ChBpZ4pIKk-16" value="" style="edgeStyle=orthogonalEdgeStyle;rounded=0;orthogonalLoop=1;jettySize=auto;html=1;" parent="bhLoS5Q-9nMrikbAch8--1" source="52Dz4_7XV_ChBpZ4pIKk-2" target="52Dz4_7XV_ChBpZ4pIKk-15" edge="1">
                    &#xa;                    &#xa;                    &#xa;                    &#xa;                    &#xa;                    &#xa;                    &#xa;                    
                    <mxGeometry relative="1" as="geometry"/>
                    &#xa;                    &#xa;                    &#xa;                    &#xa;                &#xa;                &#xa;                &#xa;                
                </mxCell>
                &#xa;                &#xa;                &#xa;                &#xa;                &#xa;                &#xa;                &#xa;                
                <mxCell id="52Dz4_7XV_ChBpZ4pIKk-18" style="edgeStyle=orthogonalEdgeStyle;rounded=0;orthogonalLoop=1;jettySize=auto;html=1;" parent="bhLoS5Q-9nMrikbAch8--1" source="52Dz4_7XV_ChBpZ4pIKk-2" target="52Dz4_7XV_ChBpZ4pIKk-17" edge="1">
                    &#xa;                    &#xa;                    &#xa;                    &#xa;                    &#xa;                    &#xa;                    &#xa;                    
                    <mxGeometry relative="1" as="geometry"/>
                    &#xa;                    &#xa;                    &#xa;                    &#xa;                &#xa;                &#xa;                &#xa;                
                </mxCell>
                &#xa;                &#xa;                &#xa;                &#xa;                &#xa;                &#xa;                &#xa;                
                <mxCell id="52Dz4_7XV_ChBpZ4pIKk-2" value="Cash" style="rounded=0;whiteSpace=wrap;html=1;fillColor=#60a917;strokeColor=#2D7600;fontColor=#ffffff;" parent="bhLoS5Q-9nMrikbAch8--1" vertex="1">
                    &#xa;                    &#xa;                    &#xa;                    &#xa;                    &#xa;                    &#xa;                    &#xa;                    
                    <mxGeometry x="100" y="160" width="120" height="60" as="geometry"/>
                    &#xa;                    &#xa;                    &#xa;                    &#xa;                &#xa;                &#xa;                &#xa;                
                </mxCell>
                &#xa;                &#xa;                &#xa;                &#xa;                &#xa;                &#xa;                &#xa;                
                <mxCell id="52Dz4_7XV_ChBpZ4pIKk-17" value="Credit Cash&lt;br&gt;R12 000" style="rounded=0;whiteSpace=wrap;html=1;fillColor=#a20025;strokeColor=#6F0000;fontColor=#ffffff;" parent="bhLoS5Q-9nMrikbAch8--1" vertex="1">
                    &#xa;                    &#xa;                    &#xa;                    &#xa;                    &#xa;                    &#xa;                    &#xa;                    
                    <mxGeometry x="190" y="410" width="120" height="60" as="geometry"/>
                    &#xa;                    &#xa;                    &#xa;                    &#xa;                &#xa;                &#xa;                &#xa;                
                </mxCell>
                &#xa;                &#xa;                &#xa;                &#xa;                &#xa;                &#xa;                &#xa;                
                <mxCell id="52Dz4_7XV_ChBpZ4pIKk-15" value="Debit Assets:&lt;br&gt;Vehicle R12 000" style="rounded=0;whiteSpace=wrap;html=1;fillColor=#008a00;strokeColor=#005700;fontColor=#ffffff;" parent="bhLoS5Q-9nMrikbAch8--1" vertex="1">
                    &#xa;                    &#xa;                    &#xa;                    &#xa;                    &#xa;                    &#xa;                    &#xa;                    
                    <mxGeometry x="10" y="410" width="120" height="60" as="geometry"/>
                    &#xa;                    &#xa;                    &#xa;                    &#xa;                &#xa;                &#xa;                &#xa;                
                </mxCell>
                &#xa;                &#xa;                &#xa;                &#xa;                &#xa;                &#xa;                &#xa;                
                <mxCell id="52Dz4_7XV_ChBpZ4pIKk-3" value="Credit" style="rounded=0;whiteSpace=wrap;html=1;fillColor=#60a917;strokeColor=#2D7600;fontColor=#ffffff;" parent="bhLoS5Q-9nMrikbAch8--1" vertex="1">
                    &#xa;                    &#xa;                    &#xa;                    &#xa;                    &#xa;                    &#xa;                    &#xa;                    
                    <mxGeometry x="330" y="160" width="120" height="60" as="geometry"/>
                    &#xa;                    &#xa;                    &#xa;                    &#xa;                &#xa;                &#xa;                &#xa;                
                </mxCell>
                &#xa;                &#xa;                &#xa;                &#xa;                &#xa;                &#xa;                &#xa;                
                <mxCell id="52Dz4_7XV_ChBpZ4pIKk-4" style="edgeStyle=orthogonalEdgeStyle;rounded=0;orthogonalLoop=1;jettySize=auto;html=1;entryX=0.5;entryY=0;entryDx=0;entryDy=0;fillColor=#60a917;strokeColor=#2D7600;" parent="bhLoS5Q-9nMrikbAch8--1" target="52Dz4_7XV_ChBpZ4pIKk-3" edge="1">
                    &#xa;                    &#xa;                    &#xa;                    &#xa;                    &#xa;                    &#xa;                    &#xa;                    
                    <mxGeometry relative="1" as="geometry">
                        &#xa;                        &#xa;                        &#xa;                        &#xa;                        &#xa;                        &#xa;                        &#xa;                        
                        <mxPoint x="310" y="80" as="sourcePoint"/>
                        &#xa;                        &#xa;                        &#xa;                        &#xa;                    &#xa;                    &#xa;                    &#xa;                    
                    </mxGeometry>
                    &#xa;                    &#xa;                    &#xa;                    &#xa;                &#xa;                &#xa;                &#xa;                
                </mxCell>
                &#xa;                &#xa;                &#xa;                &#xa;                &#xa;                &#xa;                &#xa;                
                <mxCell id="52Dz4_7XV_ChBpZ4pIKk-5" value="" style="edgeStyle=orthogonalEdgeStyle;rounded=0;orthogonalLoop=1;jettySize=auto;html=1;entryX=0.5;entryY=0;entryDx=0;entryDy=0;fillColor=#60a917;strokeColor=#2D7600;" parent="bhLoS5Q-9nMrikbAch8--1" source="52Dz4_7XV_ChBpZ4pIKk-3" target="52Dz4_7XV_ChBpZ4pIKk-10" edge="1">
                    &#xa;                    &#xa;                    &#xa;                    &#xa;                    &#xa;                    &#xa;                    &#xa;                    
                    <mxGeometry relative="1" as="geometry">
                        &#xa;                        &#xa;                        &#xa;                        &#xa;                        &#xa;                        &#xa;                        &#xa;                        
                        <mxPoint x="740" y="200" as="targetPoint"/>
                        &#xa;                        &#xa;                        &#xa;                        &#xa;                        &#xa;                        &#xa;                        &#xa;                        
                        <Array as="points">
                            &#xa;                            &#xa;                            &#xa;                            &#xa;                            &#xa;                            &#xa;                            &#xa;                            
                            <mxPoint x="390" y="310"/>
                            &#xa;                            &#xa;                            &#xa;                            &#xa;                            &#xa;                            &#xa;                            &#xa;                            
                            <mxPoint x="680" y="310"/>
                            &#xa;                            &#xa;                            &#xa;                            &#xa;                            &#xa;                            &#xa;                            &#xa;                            
                            <mxPoint x="680" y="410"/>
                            &#xa;                            &#xa;                            &#xa;                            &#xa;                            &#xa;                            &#xa;                            &#xa;                            
                            <mxPoint x="690" y="410"/>
                            &#xa;                            &#xa;                            &#xa;                            &#xa;                        &#xa;                        &#xa;                        &#xa;                        
                        </Array>
                        &#xa;                        &#xa;                        &#xa;                        &#xa;                    &#xa;                    &#xa;                    &#xa;                    
                    </mxGeometry>
                    &#xa;                    &#xa;                    &#xa;                    &#xa;                &#xa;                &#xa;                &#xa;                
                </mxCell>
                &#xa;                &#xa;                &#xa;                &#xa;                &#xa;                &#xa;                &#xa;                
                <mxCell id="52Dz4_7XV_ChBpZ4pIKk-6" style="edgeStyle=orthogonalEdgeStyle;rounded=0;orthogonalLoop=1;jettySize=auto;html=1;entryX=0.5;entryY=0;entryDx=0;entryDy=0;fillColor=#60a917;strokeColor=#2D7600;" parent="bhLoS5Q-9nMrikbAch8--1" source="52Dz4_7XV_ChBpZ4pIKk-3" target="52Dz4_7XV_ChBpZ4pIKk-9" edge="1">
                    &#xa;                    &#xa;                    &#xa;                    &#xa;                    &#xa;                    &#xa;                    &#xa;                    
                    <mxGeometry relative="1" as="geometry">
                        &#xa;                        &#xa;                        &#xa;                        &#xa;                        &#xa;                        &#xa;                        &#xa;                        
                        <Array as="points">
                            &#xa;                            &#xa;                            &#xa;                            &#xa;                            &#xa;                            &#xa;                            &#xa;                            
                            <mxPoint x="390" y="310"/>
                            &#xa;                            &#xa;                            &#xa;                            &#xa;                            &#xa;                            &#xa;                            &#xa;                            
                            <mxPoint x="520" y="310"/>
                            &#xa;                            &#xa;                            &#xa;                            &#xa;                            &#xa;                            &#xa;                            &#xa;                            
                            <mxPoint x="520" y="350"/>
                            &#xa;                            &#xa;                            &#xa;                            &#xa;                            &#xa;                            &#xa;                            &#xa;                            
                            <mxPoint x="540" y="350"/>
                            &#xa;                            &#xa;                            &#xa;                            &#xa;                        &#xa;                        &#xa;                        &#xa;                        
                        </Array>
                        &#xa;                        &#xa;                        &#xa;                        &#xa;                    &#xa;                    &#xa;                    &#xa;                    
                    </mxGeometry>
                    &#xa;                    &#xa;                    &#xa;                    &#xa;                &#xa;                &#xa;                &#xa;                
                </mxCell>
                &#xa;                &#xa;                &#xa;                &#xa;                &#xa;                &#xa;                &#xa;                
                <mxCell id="52Dz4_7XV_ChBpZ4pIKk-7" style="edgeStyle=orthogonalEdgeStyle;rounded=0;orthogonalLoop=1;jettySize=auto;html=1;entryX=0.5;entryY=0;entryDx=0;entryDy=0;fillColor=#60a917;strokeColor=#2D7600;" parent="bhLoS5Q-9nMrikbAch8--1" source="52Dz4_7XV_ChBpZ4pIKk-21" target="52Dz4_7XV_ChBpZ4pIKk-8" edge="1">
                    &#xa;                    &#xa;                    &#xa;                    &#xa;                    &#xa;                    &#xa;                    &#xa;                    
                    <mxGeometry relative="1" as="geometry"/>
                    &#xa;                    &#xa;                    &#xa;                    &#xa;                &#xa;                &#xa;                &#xa;                
                </mxCell>
                &#xa;                &#xa;                &#xa;                &#xa;                &#xa;                &#xa;                &#xa;                
                <mxCell id="IsbyjksBu4wv-zQFAn17-2" style="edgeStyle=orthogonalEdgeStyle;rounded=0;orthogonalLoop=1;jettySize=auto;html=1;" edge="1" parent="bhLoS5Q-9nMrikbAch8--1" source="52Dz4_7XV_ChBpZ4pIKk-8" target="IsbyjksBu4wv-zQFAn17-1">
                    &#xa;                    &#xa;                    &#xa;                    &#xa;                    &#xa;                    &#xa;                    &#xa;                    
                    <mxGeometry relative="1" as="geometry"/>
                    &#xa;                    &#xa;                    &#xa;                    &#xa;                &#xa;                &#xa;                &#xa;                
                </mxCell>
                &#xa;                &#xa;                &#xa;                &#xa;                &#xa;                &#xa;                &#xa;                
                <mxCell id="IsbyjksBu4wv-zQFAn17-3" style="edgeStyle=orthogonalEdgeStyle;rounded=0;orthogonalLoop=1;jettySize=auto;html=1;entryX=0.5;entryY=0;entryDx=0;entryDy=0;" edge="1" parent="bhLoS5Q-9nMrikbAch8--1" source="52Dz4_7XV_ChBpZ4pIKk-8" target="IsbyjksBu4wv-zQFAn17-0">
                    &#xa;                    &#xa;                    &#xa;                    &#xa;                    &#xa;                    &#xa;                    &#xa;                    
                    <mxGeometry relative="1" as="geometry"/>
                    &#xa;                    &#xa;                    &#xa;                    &#xa;                &#xa;                &#xa;                &#xa;                
                </mxCell>
                &#xa;                &#xa;                &#xa;                &#xa;                &#xa;                &#xa;                &#xa;                
                <mxCell id="52Dz4_7XV_ChBpZ4pIKk-8" value="Deposit" style="rounded=0;whiteSpace=wrap;html=1;fillColor=#60a917;strokeColor=#2D7600;fontColor=#ffffff;" parent="bhLoS5Q-9nMrikbAch8--1" vertex="1">
                    &#xa;                    &#xa;                    &#xa;                    &#xa;                    &#xa;                    &#xa;                    &#xa;                    
                    <mxGeometry x="330" y="430" width="120" height="30" as="geometry"/>
                    &#xa;                    &#xa;                    &#xa;                    &#xa;                &#xa;                &#xa;                &#xa;                
                </mxCell>
                &#xa;                &#xa;                &#xa;                &#xa;                &#xa;                &#xa;                &#xa;                
                <mxCell id="IsbyjksBu4wv-zQFAn17-6" style="edgeStyle=orthogonalEdgeStyle;rounded=0;orthogonalLoop=1;jettySize=auto;html=1;" edge="1" parent="bhLoS5Q-9nMrikbAch8--1" source="52Dz4_7XV_ChBpZ4pIKk-9" target="IsbyjksBu4wv-zQFAn17-5">
                    &#xa;                    &#xa;                    &#xa;                    &#xa;                    &#xa;                    &#xa;                    &#xa;                    
                    <mxGeometry relative="1" as="geometry"/>
                    &#xa;                    &#xa;                    &#xa;                    &#xa;                &#xa;                &#xa;                &#xa;                
                </mxCell>
                &#xa;                &#xa;                &#xa;                &#xa;                &#xa;                &#xa;                &#xa;                
                <mxCell id="IsbyjksBu4wv-zQFAn17-7" style="edgeStyle=orthogonalEdgeStyle;rounded=0;orthogonalLoop=1;jettySize=auto;html=1;entryX=0.5;entryY=0;entryDx=0;entryDy=0;" edge="1" parent="bhLoS5Q-9nMrikbAch8--1" source="52Dz4_7XV_ChBpZ4pIKk-9" target="IsbyjksBu4wv-zQFAn17-4">
                    &#xa;                    &#xa;                    &#xa;                    &#xa;                    &#xa;                    &#xa;                    &#xa;                    
                    <mxGeometry relative="1" as="geometry"/>
                    &#xa;                    &#xa;                    &#xa;                    &#xa;                &#xa;                &#xa;                &#xa;                
                </mxCell>
                &#xa;                &#xa;                &#xa;                &#xa;                &#xa;                &#xa;                &#xa;                
                <mxCell id="52Dz4_7XV_ChBpZ4pIKk-9" value="Loan Amount" style="rounded=0;whiteSpace=wrap;html=1;fillColor=#60a917;strokeColor=#2D7600;fontColor=#ffffff;" parent="bhLoS5Q-9nMrikbAch8--1" vertex="1">
                    &#xa;                    &#xa;                    &#xa;                    &#xa;                    &#xa;                    &#xa;                    &#xa;                    
                    <mxGeometry x="480" y="430" width="120" height="30" as="geometry"/>
                    &#xa;                    &#xa;                    &#xa;                    &#xa;                &#xa;                &#xa;                &#xa;                
                </mxCell>
                &#xa;                &#xa;                &#xa;                &#xa;                &#xa;                &#xa;                &#xa;                
                <mxCell id="52Dz4_7XV_ChBpZ4pIKk-10" value="Interest" style="rounded=0;whiteSpace=wrap;html=1;fillColor=#60a917;strokeColor=#2D7600;fontColor=#ffffff;" parent="bhLoS5Q-9nMrikbAch8--1" vertex="1">
                    &#xa;                    &#xa;                    &#xa;                    &#xa;                    &#xa;                    &#xa;                    &#xa;                    
                    <mxGeometry x="630" y="430" width="120" height="30" as="geometry"/>
                    &#xa;                    &#xa;                    &#xa;                    &#xa;                &#xa;                &#xa;                &#xa;                
                </mxCell>
                &#xa;                &#xa;                &#xa;                &#xa;                &#xa;                &#xa;                &#xa;                
                <mxCell id="IsbyjksBu4wv-zQFAn17-15" style="edgeStyle=orthogonalEdgeStyle;rounded=0;orthogonalLoop=1;jettySize=auto;html=1;" edge="1" parent="bhLoS5Q-9nMrikbAch8--1" source="52Dz4_7XV_ChBpZ4pIKk-11">
                    &#xa;                    &#xa;                    &#xa;                    &#xa;                    &#xa;                    &#xa;                    &#xa;                    
                    <mxGeometry relative="1" as="geometry">
                        &#xa;                        &#xa;                        &#xa;                        &#xa;                        &#xa;                        &#xa;                        &#xa;                        
                        <mxPoint x="680" y="570" as="targetPoint"/>
                        &#xa;                        &#xa;                        &#xa;                        &#xa;                        &#xa;                        &#xa;                        &#xa;                        
                        <Array as="points">
                            &#xa;                            &#xa;                            &#xa;                            &#xa;                            &#xa;                            &#xa;                            &#xa;                            
                            <mxPoint x="730" y="540"/>
                            &#xa;                            &#xa;                            &#xa;                            &#xa;                            &#xa;                            &#xa;                            &#xa;                            
                            <mxPoint x="680" y="540"/>
                            &#xa;                            &#xa;                            &#xa;                            &#xa;                        &#xa;                        &#xa;                        &#xa;                        
                        </Array>
                        &#xa;                        &#xa;                        &#xa;                        &#xa;                    &#xa;                    &#xa;                    &#xa;                    
                    </mxGeometry>
                    &#xa;                    &#xa;                    &#xa;                    &#xa;                &#xa;                &#xa;                &#xa;                
                </mxCell>
                &#xa;                &#xa;                &#xa;                &#xa;                &#xa;                &#xa;                &#xa;                
                <mxCell id="52Dz4_7XV_ChBpZ4pIKk-11" value="Variable" style="rounded=0;whiteSpace=wrap;html=1;fillColor=#60a917;strokeColor=#2D7600;fontColor=#ffffff;" parent="bhLoS5Q-9nMrikbAch8--1" vertex="1">
                    &#xa;                    &#xa;                    &#xa;                    &#xa;                    &#xa;                    &#xa;                    &#xa;                    
                    <mxGeometry x="690" y="490" width="80" height="20" as="geometry"/>
                    &#xa;                    &#xa;                    &#xa;                    &#xa;                &#xa;                &#xa;                &#xa;                
                </mxCell>
                &#xa;                &#xa;                &#xa;                &#xa;                &#xa;                &#xa;                &#xa;                
                <mxCell id="IsbyjksBu4wv-zQFAn17-14" style="edgeStyle=orthogonalEdgeStyle;rounded=0;orthogonalLoop=1;jettySize=auto;html=1;" edge="1" parent="bhLoS5Q-9nMrikbAch8--1" source="52Dz4_7XV_ChBpZ4pIKk-12">
                    &#xa;                    &#xa;                    &#xa;                    &#xa;                    &#xa;                    &#xa;                    &#xa;                    
                    <mxGeometry relative="1" as="geometry">
                        &#xa;                        &#xa;                        &#xa;                        &#xa;                        &#xa;                        &#xa;                        &#xa;                        
                        <mxPoint x="680" y="570" as="targetPoint"/>
                        &#xa;                        &#xa;                        &#xa;                        &#xa;                    &#xa;                    &#xa;                    &#xa;                    
                    </mxGeometry>
                    &#xa;                    &#xa;                    &#xa;                    &#xa;                &#xa;                &#xa;                &#xa;                
                </mxCell>
                &#xa;                &#xa;                &#xa;                &#xa;                &#xa;                &#xa;                &#xa;                
                <mxCell id="52Dz4_7XV_ChBpZ4pIKk-12" value="Fixed" style="rounded=0;whiteSpace=wrap;html=1;fillColor=#60a917;strokeColor=#2D7600;fontColor=#ffffff;" parent="bhLoS5Q-9nMrikbAch8--1" vertex="1">
                    &#xa;                    &#xa;                    &#xa;                    &#xa;                    &#xa;                    &#xa;                    &#xa;                    
                    <mxGeometry x="600" y="490" width="80" height="20" as="geometry"/>
                    &#xa;                    &#xa;                    &#xa;                    &#xa;                &#xa;                &#xa;                &#xa;                
                </mxCell>
                &#xa;                &#xa;                &#xa;                &#xa;                &#xa;                &#xa;                &#xa;                
                <mxCell id="52Dz4_7XV_ChBpZ4pIKk-13" style="edgeStyle=orthogonalEdgeStyle;rounded=0;orthogonalLoop=1;jettySize=auto;html=1;entryX=0.5;entryY=0;entryDx=0;entryDy=0;fillColor=#60a917;strokeColor=#2D7600;" parent="bhLoS5Q-9nMrikbAch8--1" source="52Dz4_7XV_ChBpZ4pIKk-10" target="52Dz4_7XV_ChBpZ4pIKk-11" edge="1">
                    &#xa;                    &#xa;                    &#xa;                    &#xa;                    &#xa;                    &#xa;                    &#xa;                    
                    <mxGeometry relative="1" as="geometry"/>
                    &#xa;                    &#xa;                    &#xa;                    &#xa;                &#xa;                &#xa;                &#xa;                
                </mxCell>
                &#xa;                &#xa;                &#xa;                &#xa;                &#xa;                &#xa;                &#xa;                
                <mxCell id="52Dz4_7XV_ChBpZ4pIKk-14" style="edgeStyle=orthogonalEdgeStyle;rounded=0;orthogonalLoop=1;jettySize=auto;html=1;entryX=0.5;entryY=0;entryDx=0;entryDy=0;fillColor=#60a917;strokeColor=#2D7600;" parent="bhLoS5Q-9nMrikbAch8--1" source="52Dz4_7XV_ChBpZ4pIKk-10" target="52Dz4_7XV_ChBpZ4pIKk-12" edge="1">
                    &#xa;                    &#xa;                    &#xa;                    &#xa;                    &#xa;                    &#xa;                    &#xa;                    
                    <mxGeometry relative="1" as="geometry"/>
                    &#xa;                    &#xa;                    &#xa;                    &#xa;                &#xa;                &#xa;                &#xa;                
                </mxCell>
                &#xa;                &#xa;                &#xa;                &#xa;                &#xa;                &#xa;                &#xa;                
                <mxCell id="52Dz4_7XV_ChBpZ4pIKk-20" value="Example: Buy Vehicle cash for R12 000" style="shape=process;whiteSpace=wrap;html=1;backgroundOutline=1;" parent="bhLoS5Q-9nMrikbAch8--1" vertex="1">
                    &#xa;                    &#xa;                    &#xa;                    &#xa;                    &#xa;                    &#xa;                    &#xa;                    
                    <mxGeometry x="100" y="230" width="120" height="60" as="geometry"/>
                    &#xa;                    &#xa;                    &#xa;                    &#xa;                &#xa;                &#xa;                &#xa;                
                </mxCell>
                &#xa;                &#xa;                &#xa;                &#xa;                &#xa;                &#xa;                &#xa;                
                <mxCell id="52Dz4_7XV_ChBpZ4pIKk-22" value="Residual Value" style="rounded=0;whiteSpace=wrap;html=1;fillColor=#60a917;strokeColor=#2D7600;fontColor=#ffffff;" parent="bhLoS5Q-9nMrikbAch8--1" vertex="1">
                    &#xa;                    &#xa;                    &#xa;                    &#xa;                    &#xa;                    &#xa;                    &#xa;                    
                    <mxGeometry x="780" y="430" width="120" height="30" as="geometry"/>
                    &#xa;                    &#xa;                    &#xa;                    &#xa;                &#xa;                &#xa;                &#xa;                
                </mxCell>
                &#xa;                &#xa;                &#xa;                &#xa;                &#xa;                &#xa;                &#xa;                
                <mxCell id="52Dz4_7XV_ChBpZ4pIKk-24" style="edgeStyle=orthogonalEdgeStyle;rounded=0;orthogonalLoop=1;jettySize=auto;html=1;entryX=0.5;entryY=0;entryDx=0;entryDy=0;fillColor=#60a917;strokeColor=#2D7600;" parent="bhLoS5Q-9nMrikbAch8--1" source="52Dz4_7XV_ChBpZ4pIKk-21" target="52Dz4_7XV_ChBpZ4pIKk-22" edge="1">
                    &#xa;                    &#xa;                    &#xa;                    &#xa;                    &#xa;                    &#xa;                    &#xa;                    
                    <mxGeometry relative="1" as="geometry"/>
                    &#xa;                    &#xa;                    &#xa;                    &#xa;                &#xa;                &#xa;                &#xa;                
                </mxCell>
                &#xa;                &#xa;                &#xa;                &#xa;                &#xa;                &#xa;                &#xa;                
                <mxCell id="52Dz4_7XV_ChBpZ4pIKk-26" style="edgeStyle=orthogonalEdgeStyle;rounded=0;orthogonalLoop=1;jettySize=auto;html=1;entryX=0.5;entryY=0;entryDx=0;entryDy=0;" parent="bhLoS5Q-9nMrikbAch8--1" source="52Dz4_7XV_ChBpZ4pIKk-21" target="52Dz4_7XV_ChBpZ4pIKk-25" edge="1">
                    &#xa;                    &#xa;                    &#xa;                    &#xa;                    &#xa;                    &#xa;                    &#xa;                    
                    <mxGeometry relative="1" as="geometry"/>
                    &#xa;                    &#xa;                    &#xa;                    &#xa;                &#xa;                &#xa;                &#xa;                
                </mxCell>
                &#xa;                &#xa;                &#xa;                &#xa;                &#xa;                &#xa;                &#xa;                
                <mxCell id="52Dz4_7XV_ChBpZ4pIKk-21" value="Example: Buy Vehicle&amp;nbsp; for R12 000, Should be good for 5 years with no residual value expected. Pays R3000 down with R9000 financed with 12% interest only vehicle loan (paid annually)" style="shape=process;whiteSpace=wrap;html=1;backgroundOutline=1;" parent="bhLoS5Q-9nMrikbAch8--1" vertex="1">
                    &#xa;                    &#xa;                    &#xa;                    &#xa;                    &#xa;                    &#xa;                    &#xa;                    
                    <mxGeometry x="340" y="270" width="350" height="60" as="geometry"/>
                    &#xa;                    &#xa;                    &#xa;                    &#xa;                &#xa;                &#xa;                &#xa;                
                </mxCell>
                &#xa;                &#xa;                &#xa;                &#xa;                &#xa;                &#xa;                &#xa;                
                <mxCell id="IsbyjksBu4wv-zQFAn17-12" style="edgeStyle=orthogonalEdgeStyle;rounded=0;orthogonalLoop=1;jettySize=auto;html=1;entryX=0.5;entryY=0;entryDx=0;entryDy=0;" edge="1" parent="bhLoS5Q-9nMrikbAch8--1" source="52Dz4_7XV_ChBpZ4pIKk-25" target="IsbyjksBu4wv-zQFAn17-11">
                    &#xa;                    &#xa;                    &#xa;                    &#xa;                    &#xa;                    &#xa;                    &#xa;                    
                    <mxGeometry relative="1" as="geometry"/>
                    &#xa;                    &#xa;                    &#xa;                    &#xa;                &#xa;                &#xa;                &#xa;                
                </mxCell>
                &#xa;                &#xa;                &#xa;                &#xa;                &#xa;                &#xa;                &#xa;                
                <mxCell id="IsbyjksBu4wv-zQFAn17-13" style="edgeStyle=orthogonalEdgeStyle;rounded=0;orthogonalLoop=1;jettySize=auto;html=1;" edge="1" parent="bhLoS5Q-9nMrikbAch8--1" source="52Dz4_7XV_ChBpZ4pIKk-25" target="IsbyjksBu4wv-zQFAn17-10">
                    &#xa;                    &#xa;                    &#xa;                    &#xa;                    &#xa;                    &#xa;                    &#xa;                    
                    <mxGeometry relative="1" as="geometry"/>
                    &#xa;                    &#xa;                    &#xa;                    &#xa;                &#xa;                &#xa;                &#xa;                
                </mxCell>
                &#xa;                &#xa;                &#xa;                &#xa;                &#xa;                &#xa;                &#xa;                
                <mxCell id="52Dz4_7XV_ChBpZ4pIKk-25" value="Depreciation" style="rounded=0;whiteSpace=wrap;html=1;fillColor=#60a917;strokeColor=#2D7600;fontColor=#ffffff;" parent="bhLoS5Q-9nMrikbAch8--1" vertex="1">
                    &#xa;                    &#xa;                    &#xa;                    &#xa;                    &#xa;                    &#xa;                    &#xa;                    
                    <mxGeometry x="910" y="430" width="120" height="30" as="geometry"/>
                    &#xa;                    &#xa;                    &#xa;                    &#xa;                &#xa;                &#xa;                &#xa;                
                </mxCell>
                &#xa;                &#xa;                &#xa;                &#xa;                &#xa;                &#xa;                &#xa;                
                <mxCell id="IsbyjksBu4wv-zQFAn17-0" value="cash" style="rounded=0;whiteSpace=wrap;html=1;fillColor=#a20025;strokeColor=#6F0000;fontColor=#ffffff;" vertex="1" parent="bhLoS5Q-9nMrikbAch8--1">
                    &#xa;                    &#xa;                    &#xa;                    &#xa;                    &#xa;                    &#xa;                    &#xa;                    
                    <mxGeometry x="395" y="530" width="80" height="20" as="geometry"/>
                    &#xa;                    &#xa;                    &#xa;                    &#xa;                &#xa;                &#xa;                &#xa;                
                </mxCell>
                &#xa;                &#xa;                &#xa;                &#xa;                &#xa;                &#xa;                &#xa;                
                <mxCell id="IsbyjksBu4wv-zQFAn17-1" value="assets" style="rounded=0;whiteSpace=wrap;html=1;fillColor=#008a00;strokeColor=#005700;fontColor=#ffffff;" vertex="1" parent="bhLoS5Q-9nMrikbAch8--1">
                    &#xa;                    &#xa;                    &#xa;                    &#xa;                    &#xa;                    &#xa;                    &#xa;                    
                    <mxGeometry x="305" y="530" width="80" height="20" as="geometry"/>
                    &#xa;                    &#xa;                    &#xa;                    &#xa;                &#xa;                &#xa;                &#xa;                
                </mxCell>
                &#xa;                &#xa;                &#xa;                &#xa;                &#xa;                &#xa;                &#xa;                
                <mxCell id="IsbyjksBu4wv-zQFAn17-4" value="long term debt" style="rounded=0;whiteSpace=wrap;html=1;fillColor=#a20025;strokeColor=#6F0000;fontColor=#ffffff;" vertex="1" parent="bhLoS5Q-9nMrikbAch8--1">
                    &#xa;                    &#xa;                    &#xa;                    &#xa;                    &#xa;                    &#xa;                    &#xa;                    
                    <mxGeometry x="545" y="590" width="125" height="20" as="geometry"/>
                    &#xa;                    &#xa;                    &#xa;                    &#xa;                &#xa;                &#xa;                &#xa;                
                </mxCell>
                &#xa;                &#xa;                &#xa;                &#xa;                &#xa;                &#xa;                &#xa;                
                <mxCell id="IsbyjksBu4wv-zQFAn17-5" value="assets" style="rounded=0;whiteSpace=wrap;html=1;fillColor=#008a00;strokeColor=#005700;fontColor=#ffffff;" vertex="1" parent="bhLoS5Q-9nMrikbAch8--1">
                    &#xa;                    &#xa;                    &#xa;                    &#xa;                    &#xa;                    &#xa;                    &#xa;                    
                    <mxGeometry x="455" y="590" width="80" height="20" as="geometry"/>
                    &#xa;                    &#xa;                    &#xa;                    &#xa;                &#xa;                &#xa;                &#xa;                
                </mxCell>
                &#xa;                &#xa;                &#xa;                &#xa;                &#xa;                &#xa;                &#xa;                
                <mxCell id="IsbyjksBu4wv-zQFAn17-8" value="accrued liabilites" style="rounded=0;whiteSpace=wrap;html=1;fillColor=#a20025;strokeColor=#6F0000;fontColor=#ffffff;" vertex="1" parent="bhLoS5Q-9nMrikbAch8--1">
                    &#xa;                    &#xa;                    &#xa;                    &#xa;                    &#xa;                    &#xa;                    &#xa;                    
                    <mxGeometry x="730" y="660" width="140" height="20" as="geometry"/>
                    &#xa;                    &#xa;                    &#xa;                    &#xa;                &#xa;                &#xa;                &#xa;                
                </mxCell>
                &#xa;                &#xa;                &#xa;                &#xa;                &#xa;                &#xa;                &#xa;                
                <mxCell id="IsbyjksBu4wv-zQFAn17-9" value="interest expense" style="rounded=0;whiteSpace=wrap;html=1;fillColor=#008a00;strokeColor=#005700;fontColor=#ffffff;" vertex="1" parent="bhLoS5Q-9nMrikbAch8--1">
                    &#xa;                    &#xa;                    &#xa;                    &#xa;                    &#xa;                    &#xa;                    &#xa;                    
                    <mxGeometry x="545" y="660" width="170" height="20" as="geometry"/>
                    &#xa;                    &#xa;                    &#xa;                    &#xa;                &#xa;                &#xa;                &#xa;                
                </mxCell>
                &#xa;                &#xa;                &#xa;                &#xa;                &#xa;                &#xa;                &#xa;                
                <mxCell id="IsbyjksBu4wv-zQFAn17-10" value="Accumulated deprecition" style="rounded=0;whiteSpace=wrap;html=1;fillColor=#a20025;strokeColor=#6F0000;fontColor=#ffffff;" vertex="1" parent="bhLoS5Q-9nMrikbAch8--1">
                    &#xa;                    &#xa;                    &#xa;                    &#xa;                    &#xa;                    &#xa;                    &#xa;                    
                    <mxGeometry x="990" y="540" width="180" height="20" as="geometry"/>
                    &#xa;                    &#xa;                    &#xa;                    &#xa;                &#xa;                &#xa;                &#xa;                
                </mxCell>
                &#xa;                &#xa;                &#xa;                &#xa;                &#xa;                &#xa;                &#xa;                
                <mxCell id="IsbyjksBu4wv-zQFAn17-11" value="Depreciation" style="rounded=0;whiteSpace=wrap;html=1;fillColor=#008a00;strokeColor=#005700;fontColor=#ffffff;" vertex="1" parent="bhLoS5Q-9nMrikbAch8--1">
                    &#xa;                    &#xa;                    &#xa;                    &#xa;                    &#xa;                    &#xa;                    &#xa;                    
                    <mxGeometry x="860" y="540" width="120" height="20" as="geometry"/>
                    &#xa;                    &#xa;                    &#xa;                    &#xa;                &#xa;                &#xa;                &#xa;                
                </mxCell>
                &#xa;                &#xa;                &#xa;                &#xa;                &#xa;                &#xa;                &#xa;                
                <mxCell id="IsbyjksBu4wv-zQFAn17-16" value="Asset" style="ellipse;whiteSpace=wrap;html=1;aspect=fixed;fillColor=#0050ef;strokeColor=#001DBC;fontColor=#ffffff;" vertex="1" parent="bhLoS5Q-9nMrikbAch8--1">
                    &#xa;                    &#xa;                    &#xa;                    &#xa;                    &#xa;                    &#xa;                    &#xa;                    
                    <mxGeometry x="410" width="50" height="50" as="geometry"/>
                    &#xa;                    &#xa;                    &#xa;                    &#xa;                &#xa;                &#xa;                &#xa;                
                </mxCell>
                &#xa;                &#xa;                &#xa;                &#xa;                &#xa;                &#xa;                &#xa;                
                <mxCell id="IsbyjksBu4wv-zQFAn17-17" value="Liability" style="ellipse;whiteSpace=wrap;html=1;aspect=fixed;fillColor=#6a00ff;strokeColor=#3700CC;fontColor=#ffffff;" vertex="1" parent="bhLoS5Q-9nMrikbAch8--1">
                    &#xa;                    &#xa;                    &#xa;                    &#xa;                    &#xa;                    &#xa;                    &#xa;                    
                    <mxGeometry x="500" width="50" height="50" as="geometry"/>
                    &#xa;                    &#xa;                    &#xa;                    &#xa;                &#xa;                &#xa;                &#xa;                
                </mxCell>
                &#xa;                &#xa;                &#xa;                &#xa;                &#xa;                &#xa;                &#xa;                
                <mxCell id="IsbyjksBu4wv-zQFAn17-18" value="Equity" style="ellipse;whiteSpace=wrap;html=1;aspect=fixed;fillColor=#e3c800;strokeColor=#B09500;fontColor=#ffffff;" vertex="1" parent="bhLoS5Q-9nMrikbAch8--1">
                    &#xa;                    &#xa;                    &#xa;                    &#xa;                    &#xa;                    &#xa;                    &#xa;                    
                    <mxGeometry x="580" width="50" height="50" as="geometry"/>
                    &#xa;                    &#xa;                    &#xa;                    &#xa;                &#xa;                &#xa;                &#xa;                
                </mxCell>
                &#xa;                &#xa;                &#xa;                &#xa;                &#xa;                &#xa;                &#xa;                
                <mxCell id="IsbyjksBu4wv-zQFAn17-24" value="" style="ellipse;whiteSpace=wrap;html=1;aspect=fixed;fillColor=#0050ef;strokeColor=#001DBC;fontColor=#ffffff;" vertex="1" parent="bhLoS5Q-9nMrikbAch8--1">
                    &#xa;                    &#xa;                    &#xa;                    &#xa;                    &#xa;                    &#xa;                    &#xa;                    
                    <mxGeometry x="290" y="410" width="20" height="20" as="geometry"/>
                    &#xa;                    &#xa;                    &#xa;                    &#xa;                &#xa;                &#xa;                &#xa;                
                </mxCell>
                &#xa;                &#xa;                &#xa;                &#xa;                &#xa;                &#xa;                &#xa;                
                <mxCell id="IsbyjksBu4wv-zQFAn17-25" value="" style="ellipse;whiteSpace=wrap;html=1;aspect=fixed;fillColor=#0050ef;strokeColor=#001DBC;fontColor=#ffffff;" vertex="1" parent="bhLoS5Q-9nMrikbAch8--1">
                    &#xa;                    &#xa;                    &#xa;                    &#xa;                    &#xa;                    &#xa;                    &#xa;                    
                    <mxGeometry x="110" y="410" width="20" height="20" as="geometry"/>
                    &#xa;                    &#xa;                    &#xa;                    &#xa;                &#xa;                &#xa;                &#xa;                
                </mxCell>
                &#xa;                &#xa;                &#xa;                &#xa;                &#xa;                &#xa;                &#xa;                
                <mxCell id="IsbyjksBu4wv-zQFAn17-27" value="" style="ellipse;whiteSpace=wrap;html=1;aspect=fixed;fillColor=#0050ef;strokeColor=#001DBC;fontColor=#ffffff;" vertex="1" parent="bhLoS5Q-9nMrikbAch8--1">
                    &#xa;                    &#xa;                    &#xa;                    &#xa;                    &#xa;                    &#xa;                    &#xa;                    
                    <mxGeometry x="365" y="530" width="20" height="20" as="geometry"/>
                    &#xa;                    &#xa;                    &#xa;                    &#xa;                &#xa;                &#xa;                &#xa;                
                </mxCell>
                &#xa;                &#xa;                &#xa;                &#xa;                &#xa;                &#xa;                &#xa;                
                <mxCell id="IsbyjksBu4wv-zQFAn17-28" value="" style="ellipse;whiteSpace=wrap;html=1;aspect=fixed;fillColor=#0050ef;strokeColor=#001DBC;fontColor=#ffffff;" vertex="1" parent="bhLoS5Q-9nMrikbAch8--1">
                    &#xa;                    &#xa;                    &#xa;                    &#xa;                    &#xa;                    &#xa;                    &#xa;                    
                    <mxGeometry x="455" y="530" width="20" height="20" as="geometry"/>
                    &#xa;                    &#xa;                    &#xa;                    &#xa;                &#xa;                &#xa;                &#xa;                
                </mxCell>
                &#xa;                &#xa;                &#xa;                &#xa;                &#xa;                &#xa;                &#xa;                
                <mxCell id="IsbyjksBu4wv-zQFAn17-29" value="" style="ellipse;whiteSpace=wrap;html=1;aspect=fixed;fillColor=#0050ef;strokeColor=#001DBC;fontColor=#ffffff;" vertex="1" parent="bhLoS5Q-9nMrikbAch8--1">
                    &#xa;                    &#xa;                    &#xa;                    &#xa;                    &#xa;                    &#xa;                    &#xa;                    
                    <mxGeometry x="515" y="590" width="20" height="20" as="geometry"/>
                    &#xa;                    &#xa;                    &#xa;                    &#xa;                &#xa;                &#xa;                &#xa;                
                </mxCell>
                &#xa;                &#xa;                &#xa;                &#xa;                &#xa;                &#xa;                &#xa;                
                <mxCell id="IsbyjksBu4wv-zQFAn17-30" value="" style="ellipse;whiteSpace=wrap;html=1;aspect=fixed;fillColor=#6a00ff;strokeColor=#3700CC;fontColor=#ffffff;" vertex="1" parent="bhLoS5Q-9nMrikbAch8--1">
                    &#xa;                    &#xa;                    &#xa;                    &#xa;                    &#xa;                    &#xa;                    &#xa;                    
                    <mxGeometry x="650" y="590" width="20" height="20" as="geometry"/>
                    &#xa;                    &#xa;                    &#xa;                    &#xa;                &#xa;                &#xa;                &#xa;                
                </mxCell>
                &#xa;                &#xa;                &#xa;                &#xa;                &#xa;                &#xa;                &#xa;                
                <mxCell id="IsbyjksBu4wv-zQFAn17-31" value="" style="ellipse;whiteSpace=wrap;html=1;aspect=fixed;fillColor=#e3c800;strokeColor=#B09500;fontColor=#ffffff;" vertex="1" parent="bhLoS5Q-9nMrikbAch8--1">
                    &#xa;                    &#xa;                    &#xa;                    &#xa;                    &#xa;                    &#xa;                    &#xa;                    
                    <mxGeometry x="695" y="660" width="20" height="20" as="geometry"/>
                    &#xa;                    &#xa;                    &#xa;                    &#xa;                &#xa;                &#xa;                &#xa;                
                </mxCell>
                &#xa;                &#xa;                &#xa;                &#xa;                &#xa;                &#xa;                &#xa;                
                <mxCell id="IsbyjksBu4wv-zQFAn17-35" value="" style="ellipse;whiteSpace=wrap;html=1;aspect=fixed;fillColor=#6a00ff;strokeColor=#3700CC;fontColor=#ffffff;" vertex="1" parent="bhLoS5Q-9nMrikbAch8--1">
                    &#xa;                    &#xa;                    &#xa;                    &#xa;                    &#xa;                    &#xa;                    &#xa;                    
                    <mxGeometry x="850" y="660" width="20" height="20" as="geometry"/>
                    &#xa;                    &#xa;                    &#xa;                    &#xa;                &#xa;                &#xa;                &#xa;                
                </mxCell>
                &#xa;                &#xa;                &#xa;                &#xa;                &#xa;                &#xa;                &#xa;                
                <mxCell id="IsbyjksBu4wv-zQFAn17-36" value="" style="ellipse;whiteSpace=wrap;html=1;aspect=fixed;fillColor=#e3c800;strokeColor=#B09500;fontColor=#ffffff;" vertex="1" parent="bhLoS5Q-9nMrikbAch8--1">
                    &#xa;                    &#xa;                    &#xa;                    &#xa;                    &#xa;                    &#xa;                    &#xa;                    
                    <mxGeometry x="960" y="540" width="20" height="20" as="geometry"/>
                    &#xa;                    &#xa;                    &#xa;                    &#xa;                &#xa;                &#xa;                &#xa;                
                </mxCell>
                &#xa;                &#xa;                &#xa;                &#xa;                &#xa;                &#xa;                &#xa;                
                <mxCell id="IsbyjksBu4wv-zQFAn17-37" value="" style="ellipse;whiteSpace=wrap;html=1;aspect=fixed;fillColor=#0050ef;strokeColor=#001DBC;fontColor=#ffffff;" vertex="1" parent="bhLoS5Q-9nMrikbAch8--1">
                    &#xa;                    &#xa;                    &#xa;                    &#xa;                    &#xa;                    &#xa;                    &#xa;                    
                    <mxGeometry x="1150" y="540" width="20" height="20" as="geometry"/>
                    &#xa;                    &#xa;                    &#xa;                    &#xa;                &#xa;                &#xa;                &#xa;                
                </mxCell>
                &#xa;                &#xa;                &#xa;                &#xa;            &#xa;            &#xa;            &#xa;            
            </root>
            &#xa;            &#xa;            &#xa;            &#xa;        &#xa;        &#xa;        &#xa;        
        </mxGraphModel>
        &#xa;        &#xa;        &#xa;        &#xa;    &#xa;    &#xa;    &#xa;    
    </diagram>
</mxfile>